<svg width="1600" height="900" viewBox="0 0 1600 900" fill="none" xmlns="http://www.w3.org/2000/svg">
<g clip-path="url(#clip0_4_52)">
<rect width="1600" height="900" fill="#2F2F2F"/>
<rect x="-69" y="749.287" width="268" height="35.3027" transform="rotate(-13 -69 749.287)" fill="#9FE96E"/>
<rect x="196.298" y="972.305" width="268" height="35.3027" transform="rotate(-98 196.298 972.305)" fill="#9FE96E"/>
<rect x="-89" y="967.245" width="352.476" height="35.3027" transform="rotate(-41 -89 967.245)" fill="#9FE96E"/>
<path d="M112 772H1488V808C1488 841.137 1461.14 868 1428 868H172C138.863 868 112 841.137 112 808V772Z" fill="black"/>
<path d="M210.712 804.496V838H203.992V804.496H210.712ZM232.087 811.024C235.255 811.024 237.815 812.032 239.767 814.048C241.719 816.032 242.695 818.816 242.695 822.4V838H235.975V823.312C235.975 821.2 235.447 819.584 234.391 818.464C233.335 817.312 231.895 816.736 230.071 816.736C228.215 816.736 226.743 817.312 225.655 818.464C224.599 819.584 224.071 821.2 224.071 823.312V838H217.351V811.408H224.071V814.72C224.967 813.568 226.103 812.672 227.479 812.032C228.887 811.36 230.423 811.024 232.087 811.024ZM259.261 838.432C257.085 838.432 255.133 838.048 253.405 837.28C251.677 836.48 250.301 835.408 249.277 834.064C248.285 832.72 247.741 831.232 247.645 829.6H254.413C254.541 830.624 255.037 831.472 255.901 832.144C256.797 832.816 257.901 833.152 259.213 833.152C260.493 833.152 261.485 832.896 262.189 832.384C262.925 831.872 263.293 831.216 263.293 830.416C263.293 829.552 262.845 828.912 261.949 828.496C261.085 828.048 259.693 827.568 257.773 827.056C255.789 826.576 254.157 826.08 252.877 825.568C251.629 825.056 250.541 824.272 249.613 823.216C248.717 822.16 248.269 820.736 248.269 818.944C248.269 817.472 248.685 816.128 249.517 814.912C250.381 813.696 251.597 812.736 253.165 812.032C254.765 811.328 256.637 810.976 258.781 810.976C261.949 810.976 264.477 811.776 266.365 813.376C268.253 814.944 269.293 817.072 269.485 819.76H263.053C262.957 818.704 262.509 817.872 261.709 817.264C260.941 816.624 259.901 816.304 258.589 816.304C257.373 816.304 256.429 816.528 255.757 816.976C255.117 817.424 254.797 818.048 254.797 818.848C254.797 819.744 255.245 820.432 256.141 820.912C257.037 821.36 258.429 821.824 260.317 822.304C262.237 822.784 263.821 823.28 265.069 823.792C266.317 824.304 267.389 825.104 268.285 826.192C269.213 827.248 269.693 828.656 269.725 830.416C269.725 831.952 269.293 833.328 268.429 834.544C267.597 835.76 266.381 836.72 264.781 837.424C263.213 838.096 261.373 838.432 259.261 838.432ZM278.65 808.24C277.466 808.24 276.474 807.872 275.674 807.136C274.906 806.368 274.522 805.424 274.522 804.304C274.522 803.184 274.906 802.256 275.674 801.52C276.474 800.752 277.466 800.368 278.65 800.368C279.834 800.368 280.81 800.752 281.578 801.52C282.378 802.256 282.778 803.184 282.778 804.304C282.778 805.424 282.378 806.368 281.578 807.136C280.81 807.872 279.834 808.24 278.65 808.24ZM281.962 811.408V838H275.242V811.408H281.962ZM299.017 810.976C301.001 810.976 302.745 811.376 304.249 812.176C305.753 812.944 306.937 813.952 307.801 815.2V811.408H314.569V838.192C314.569 840.656 314.073 842.848 313.081 844.768C312.089 846.72 310.601 848.256 308.617 849.376C306.633 850.528 304.233 851.104 301.417 851.104C297.641 851.104 294.537 850.224 292.105 848.464C289.705 846.704 288.345 844.304 288.025 841.264H294.697C295.049 842.48 295.801 843.44 296.953 844.144C298.137 844.88 299.561 845.248 301.225 845.248C303.177 845.248 304.761 844.656 305.977 843.472C307.193 842.32 307.801 840.56 307.801 838.192V834.064C306.937 835.312 305.737 836.352 304.201 837.184C302.697 838.016 300.969 838.432 299.017 838.432C296.777 838.432 294.729 837.856 292.873 836.704C291.017 835.552 289.545 833.936 288.457 831.856C287.401 829.744 286.873 827.328 286.873 824.608C286.873 821.92 287.401 819.536 288.457 817.456C289.545 815.376 291.001 813.776 292.825 812.656C294.681 811.536 296.745 810.976 299.017 810.976ZM307.801 824.704C307.801 823.072 307.481 821.68 306.841 820.528C306.201 819.344 305.337 818.448 304.249 817.84C303.161 817.2 301.993 816.88 300.745 816.88C299.497 816.88 298.345 817.184 297.289 817.792C296.233 818.4 295.369 819.296 294.697 820.48C294.057 821.632 293.737 823.008 293.737 824.608C293.737 826.208 294.057 827.616 294.697 828.832C295.369 830.016 296.233 830.928 297.289 831.568C298.377 832.208 299.529 832.528 300.745 832.528C301.993 832.528 303.161 832.224 304.249 831.616C305.337 830.976 306.201 830.08 306.841 828.928C307.481 827.744 307.801 826.336 307.801 824.704ZM336.108 811.024C338.124 811.024 339.916 811.472 341.484 812.368C343.052 813.232 344.268 814.528 345.132 816.256C346.028 817.952 346.476 820 346.476 822.4V838H339.756V823.312C339.756 821.2 339.228 819.584 338.172 818.464C337.116 817.312 335.676 816.736 333.852 816.736C331.996 816.736 330.524 817.312 329.436 818.464C328.38 819.584 327.852 821.2 327.852 823.312V838H321.132V802.48H327.852V814.72C328.716 813.568 329.868 812.672 331.308 812.032C332.748 811.36 334.348 811.024 336.108 811.024ZM360.691 816.928V829.792C360.691 830.688 360.899 831.344 361.315 831.76C361.763 832.144 362.499 832.336 363.523 832.336H366.643V838H362.419C356.755 838 353.923 835.248 353.923 829.744V816.928H350.755V811.408H353.923V804.832H360.691V811.408H366.643V816.928H360.691ZM381.652 838.432C379.476 838.432 377.524 838.048 375.796 837.28C374.068 836.48 372.692 835.408 371.668 834.064C370.676 832.72 370.132 831.232 370.036 829.6H376.804C376.932 830.624 377.428 831.472 378.292 832.144C379.188 832.816 380.292 833.152 381.604 833.152C382.884 833.152 383.876 832.896 384.58 832.384C385.316 831.872 385.684 831.216 385.684 830.416C385.684 829.552 385.236 828.912 384.34 828.496C383.476 828.048 382.084 827.568 380.164 827.056C378.18 826.576 376.548 826.08 375.268 825.568C374.02 825.056 372.932 824.272 372.004 823.216C371.108 822.16 370.66 820.736 370.66 818.944C370.66 817.472 371.076 816.128 371.908 814.912C372.772 813.696 373.988 812.736 375.556 812.032C377.156 811.328 379.028 810.976 381.172 810.976C384.34 810.976 386.868 811.776 388.756 813.376C390.644 814.944 391.684 817.072 391.876 819.76H385.444C385.348 818.704 384.9 817.872 384.1 817.264C383.332 816.624 382.292 816.304 380.98 816.304C379.764 816.304 378.82 816.528 378.148 816.976C377.508 817.424 377.188 818.048 377.188 818.848C377.188 819.744 377.636 820.432 378.532 820.912C379.428 821.36 380.82 821.824 382.708 822.304C384.628 822.784 386.212 823.28 387.46 823.792C388.708 824.304 389.78 825.104 390.676 826.192C391.604 827.248 392.084 828.656 392.116 830.416C392.116 831.952 391.684 833.328 390.82 834.544C389.988 835.76 388.772 836.72 387.172 837.424C385.604 838.096 383.764 838.432 381.652 838.432Z" fill="white"/>
<rect x="566" y="788" width="64" height="64" rx="10" fill="black"/>
<path d="M607.6 829.6V817.6M598 829.6V810.4M588.4 829.6V824.8M583.6 839.2C580.949 839.2 578.8 837.051 578.8 834.4V805.6C578.8 802.949 580.949 800.8 583.6 800.8H612.4C615.051 800.8 617.2 802.949 617.2 805.6V834.4C617.2 837.051 615.051 839.2 612.4 839.2H583.6Z" stroke="#9FE96E" stroke-width="2" stroke-linecap="round" stroke-linejoin="round"/>
<rect x="646" y="788" width="64" height="64" rx="10" fill="#2F2F2F"/>
<path d="M673.2 839.2H682.8M666 812.8C666 806.173 671.373 800.8 678 800.8C684.627 800.8 690 806.173 690 812.8C690 817.721 687.038 821.748 682.8 823.6V830.8C682.8 832.125 681.725 833.2 680.4 833.2H675.6C674.275 833.2 673.2 832.125 673.2 830.8V823.801C668.962 821.95 666 817.721 666 812.8Z" stroke="#9FE96E" stroke-width="2" stroke-linecap="round" stroke-linejoin="round"/>
<rect x="726" y="788" width="64" height="64" rx="10" fill="black"/>
<path d="M774.875 821C775.427 821 775.875 820.552 775.875 820C775.875 819.448 775.427 819 774.875 819V821ZM775 820C775 829.389 767.389 837 758 837V839C768.493 839 777 830.493 777 820H775ZM758 837C748.611 837 741 829.389 741 820H739C739 830.493 747.507 839 758 839V837ZM741 820C741 810.611 748.611 803 758 803V801C747.507 801 739 809.507 739 820H741ZM758 803C767.389 803 775 810.611 775 820H777C777 809.507 768.493 801 758 801V803ZM758 837C757.244 837 756.444 836.654 755.63 835.867C754.811 835.075 754.027 833.88 753.348 832.327C751.99 829.224 751.125 824.866 751.125 820H749.125C749.125 825.075 750.023 829.718 751.515 833.129C752.261 834.833 753.174 836.275 754.24 837.304C755.31 838.339 756.582 839 758 839V837ZM751.125 820C751.125 815.134 751.99 810.776 753.348 807.673C754.027 806.12 754.811 804.925 755.63 804.133C756.444 803.346 757.244 803 758 803V801C756.582 801 755.31 801.661 754.24 802.696C753.174 803.725 752.261 805.167 751.515 806.871C750.023 810.282 749.125 814.925 749.125 820H751.125ZM758 839C759.418 839 760.69 838.339 761.76 837.304C762.826 836.275 763.739 834.833 764.485 833.129C765.977 829.718 766.875 825.075 766.875 820H764.875C764.875 824.866 764.01 829.224 762.652 832.327C761.973 833.88 761.189 835.075 760.37 835.867C759.556 836.654 758.756 837 758 837V839ZM766.875 820C766.875 814.925 765.977 810.282 764.485 806.871C763.739 805.167 762.826 803.725 761.76 802.696C760.69 801.661 759.418 801 758 801V803C758.756 803 759.556 803.346 760.37 804.133C761.189 804.925 761.973 806.12 762.652 807.673C764.01 810.776 764.875 815.134 764.875 820H766.875ZM740 821L774.875 821V819L740 819L740 821Z" fill="#9FE96E"/>
<g filter="url(#filter0_f_4_52)">
<ellipse cx="95.0089" cy="80" rx="133.536" ry="116.148" transform="rotate(1.23556 95.0089 80)" fill="url(#paint0_linear_4_52)"/>
</g>
<mask id="path-13-inside-1_4_52" fill="white">
<path fill-rule="evenodd" clip-rule="evenodd" d="M62 32C45.4315 32 32 45.4314 32 62V742C32 758.569 45.4315 772 62 772H817C836.882 772 853 788.118 853 808C853 827.882 869.118 844 889 844H1246C1265.88 844 1282 827.882 1282 808C1282 788.118 1298.12 772 1318 772H1538C1554.57 772 1568 758.569 1568 742V62C1568 45.4315 1554.57 32 1538 32H62Z"/>
</mask>
<path fill-rule="evenodd" clip-rule="evenodd" d="M62 32C45.4315 32 32 45.4314 32 62V742C32 758.569 45.4315 772 62 772H817C836.882 772 853 788.118 853 808C853 827.882 869.118 844 889 844H1246C1265.88 844 1282 827.882 1282 808C1282 788.118 1298.12 772 1318 772H1538C1554.57 772 1568 758.569 1568 742V62C1568 45.4315 1554.57 32 1538 32H62Z" fill="white"/>
<path d="M33 62C33 45.9837 45.9837 33 62 33V31C44.8792 31 31 44.8792 31 62H33ZM33 742V62H31V742H33ZM62 771C45.9837 771 33 758.016 33 742H31C31 759.121 44.8792 773 62 773V771ZM817 771H62V773H817V771ZM1246 843H889V845H1246V843ZM1538 771H1318V773H1538V771ZM1567 742C1567 758.016 1554.02 771 1538 771V773C1555.12 773 1569 759.121 1569 742H1567ZM1567 62V742H1569V62H1567ZM1538 33C1554.02 33 1567 45.9837 1567 62H1569C1569 44.8792 1555.12 31 1538 31V33ZM62 33H1538V31H62V33ZM1283 808C1283 788.67 1298.67 773 1318 773V771C1297.57 771 1281 787.565 1281 808H1283ZM1246 845C1266.43 845 1283 828.435 1283 808H1281C1281 827.33 1265.33 843 1246 843V845ZM852 808C852 828.435 868.565 845 889 845V843C869.67 843 854 827.33 854 808H852ZM817 773C836.33 773 852 788.67 852 808H854C854 787.565 837.435 771 817 771V773Z" fill="black" mask="url(#path-13-inside-1_4_52)"/>
<rect x="828.5" y="440.618" width="719" height="314.882" rx="29.5" fill="#2F2F2F" stroke="black"/>
<rect x="820.5" y="426.5" width="719" height="314.882" rx="29.5" fill="#A4A7F6" stroke="black"/>
<rect x="824.5" y="78.6176" width="719" height="314.882" rx="29.5" fill="#2F2F2F" stroke="black"/>
<rect x="816.5" y="64.5" width="719" height="314.882" rx="29.5" fill="#A4A7F6" stroke="black"/>
<rect x="72.5" y="80.5" width="719" height="675" rx="29.5" fill="#2F2F2F" stroke="black"/>
<rect x="64.5" y="64.5" width="719" height="675" rx="29.5" fill="#9FE96E" stroke="black"/>
<path d="M108.013 92.664V115H103.533V100.472L97.5491 115H94.1571L88.1411 100.472V115H83.6611V92.664H88.7491L95.8531 109.272L102.957 92.664H108.013ZM120.314 115.288C118.608 115.288 117.072 114.915 115.706 114.168C114.341 113.4 113.264 112.323 112.474 110.936C111.706 109.549 111.322 107.949 111.322 106.136C111.322 104.323 111.717 102.723 112.506 101.336C113.317 99.9493 114.416 98.8827 115.802 98.136C117.189 97.368 118.736 96.984 120.442 96.984C122.149 96.984 123.696 97.368 125.082 98.136C126.469 98.8827 127.557 99.9493 128.346 101.336C129.157 102.723 129.562 104.323 129.562 106.136C129.562 107.949 129.146 109.549 128.314 110.936C127.504 112.323 126.394 113.4 124.986 114.168C123.6 114.915 122.042 115.288 120.314 115.288ZM120.314 111.384C121.125 111.384 121.882 111.192 122.586 110.808C123.312 110.403 123.888 109.805 124.314 109.016C124.741 108.227 124.954 107.267 124.954 106.136C124.954 104.451 124.506 103.16 123.61 102.264C122.736 101.347 121.658 100.888 120.378 100.888C119.098 100.888 118.021 101.347 117.146 102.264C116.293 103.16 115.866 104.451 115.866 106.136C115.866 107.821 116.282 109.123 117.114 110.04C117.968 110.936 119.034 111.384 120.314 111.384ZM142.673 97.016C144.785 97.016 146.491 97.688 147.793 99.032C149.094 100.355 149.745 102.211 149.745 104.6V115H145.265V105.208C145.265 103.8 144.913 102.723 144.209 101.976C143.505 101.208 142.545 100.824 141.329 100.824C140.091 100.824 139.11 101.208 138.385 101.976C137.681 102.723 137.329 103.8 137.329 105.208V115H132.849V97.272H137.329V99.48C137.926 98.712 138.683 98.1147 139.601 97.688C140.539 97.24 141.563 97.016 142.673 97.016ZM159.221 100.952V109.528C159.221 110.125 159.36 110.563 159.637 110.84C159.936 111.096 160.426 111.224 161.109 111.224H163.189V115H160.373C156.597 115 154.709 113.165 154.709 109.496V100.952H152.597V97.272H154.709V92.888H159.221V97.272H163.189V100.952H159.221ZM176.395 97.016C177.739 97.016 178.934 97.3147 179.979 97.912C181.024 98.488 181.835 99.352 182.411 100.504C183.008 101.635 183.307 103 183.307 104.6V115H178.827V105.208C178.827 103.8 178.475 102.723 177.771 101.976C177.067 101.208 176.107 100.824 174.891 100.824C173.654 100.824 172.672 101.208 171.947 101.976C171.243 102.723 170.891 103.8 170.891 105.208V115H166.411V91.32H170.891V99.48C171.467 98.712 172.235 98.1147 173.195 97.688C174.155 97.24 175.222 97.016 176.395 97.016ZM192.047 91.32V115H187.567V91.32H192.047ZM213.434 97.272L202.458 123.384H197.69L201.53 114.552L194.426 97.272H199.45L204.026 109.656L208.666 97.272H213.434ZM231.186 115.224C229.628 115.224 228.22 114.957 226.962 114.424C225.724 113.891 224.743 113.123 224.018 112.12C223.292 111.117 222.919 109.933 222.898 108.568H227.698C227.762 109.485 228.082 110.211 228.658 110.744C229.255 111.277 230.066 111.544 231.09 111.544C232.135 111.544 232.956 111.299 233.554 110.808C234.151 110.296 234.45 109.635 234.45 108.824C234.45 108.163 234.247 107.619 233.842 107.192C233.436 106.765 232.924 106.435 232.306 106.2C231.708 105.944 230.876 105.667 229.81 105.368C228.359 104.941 227.175 104.525 226.258 104.12C225.362 103.693 224.583 103.064 223.922 102.232C223.282 101.379 222.962 100.248 222.962 98.84C222.962 97.5173 223.292 96.3653 223.954 95.384C224.615 94.4027 225.543 93.656 226.738 93.144C227.932 92.6107 229.298 92.344 230.834 92.344C233.138 92.344 235.004 92.9093 236.434 94.04C237.884 95.1493 238.684 96.7067 238.834 98.712H233.906C233.863 97.944 233.532 97.3147 232.914 96.824C232.316 96.312 231.516 96.056 230.514 96.056C229.639 96.056 228.935 96.28 228.402 96.728C227.89 97.176 227.634 97.8267 227.634 98.68C227.634 99.2773 227.826 99.7787 228.21 100.184C228.615 100.568 229.106 100.888 229.682 101.144C230.279 101.379 231.111 101.656 232.178 101.976C233.628 102.403 234.812 102.829 235.73 103.256C236.647 103.683 237.436 104.323 238.098 105.176C238.759 106.029 239.09 107.149 239.09 108.536C239.09 109.731 238.78 110.84 238.162 111.864C237.543 112.888 236.636 113.709 235.442 114.328C234.247 114.925 232.828 115.224 231.186 115.224ZM241.822 106.072C241.822 104.28 242.174 102.691 242.878 101.304C243.603 99.9173 244.574 98.8507 245.79 98.104C247.027 97.3573 248.403 96.984 249.918 96.984C251.24 96.984 252.392 97.2507 253.374 97.784C254.376 98.3173 255.176 98.9893 255.774 99.8V97.272H260.286V115H255.774V112.408C255.198 113.24 254.398 113.933 253.374 114.488C252.371 115.021 251.208 115.288 249.886 115.288C248.392 115.288 247.027 114.904 245.79 114.136C244.574 113.368 243.603 112.291 242.878 110.904C242.174 109.496 241.822 107.885 241.822 106.072ZM255.774 106.136C255.774 105.048 255.56 104.12 255.134 103.352C254.707 102.563 254.131 101.965 253.406 101.56C252.68 101.133 251.902 100.92 251.07 100.92C250.238 100.92 249.47 101.123 248.766 101.528C248.062 101.933 247.486 102.531 247.038 103.32C246.611 104.088 246.398 105.005 246.398 106.072C246.398 107.139 246.611 108.077 247.038 108.888C247.486 109.677 248.062 110.285 248.766 110.712C249.491 111.139 250.259 111.352 251.07 111.352C251.902 111.352 252.68 111.149 253.406 110.744C254.131 110.317 254.707 109.72 255.134 108.952C255.56 108.163 255.774 107.224 255.774 106.136ZM269.141 91.32V115H264.661V91.32H269.141ZM290.047 105.752C290.047 106.392 290.005 106.968 289.919 107.48H276.959C277.066 108.76 277.514 109.763 278.303 110.488C279.093 111.213 280.063 111.576 281.215 111.576C282.879 111.576 284.063 110.861 284.767 109.432H289.599C289.087 111.139 288.106 112.547 286.655 113.656C285.205 114.744 283.423 115.288 281.311 115.288C279.605 115.288 278.069 114.915 276.703 114.168C275.359 113.4 274.303 112.323 273.535 110.936C272.789 109.549 272.415 107.949 272.415 106.136C272.415 104.301 272.789 102.691 273.535 101.304C274.282 99.9173 275.327 98.8507 276.671 98.104C278.015 97.3573 279.562 96.984 281.311 96.984C282.997 96.984 284.501 97.3467 285.823 98.072C287.167 98.7973 288.202 99.832 288.927 101.176C289.674 102.499 290.047 104.024 290.047 105.752ZM285.407 104.472C285.386 103.32 284.97 102.403 284.159 101.72C283.349 101.016 282.357 100.664 281.183 100.664C280.074 100.664 279.135 101.005 278.367 101.688C277.621 102.349 277.162 103.277 276.991 104.472H285.407ZM300.101 115.288C298.651 115.288 297.349 115.032 296.197 114.52C295.045 113.987 294.128 113.272 293.445 112.376C292.784 111.48 292.421 110.488 292.357 109.4H296.869C296.955 110.083 297.285 110.648 297.861 111.096C298.459 111.544 299.195 111.768 300.069 111.768C300.923 111.768 301.584 111.597 302.053 111.256C302.544 110.915 302.789 110.477 302.789 109.944C302.789 109.368 302.491 108.941 301.893 108.664C301.317 108.365 300.389 108.045 299.109 107.704C297.787 107.384 296.699 107.053 295.845 106.712C295.013 106.371 294.288 105.848 293.669 105.144C293.072 104.44 292.773 103.491 292.773 102.296C292.773 101.315 293.051 100.419 293.605 99.608C294.181 98.7973 294.992 98.1573 296.037 97.688C297.104 97.2187 298.352 96.984 299.781 96.984C301.893 96.984 303.579 97.5173 304.837 98.584C306.096 99.6293 306.789 101.048 306.917 102.84H302.629C302.565 102.136 302.267 101.581 301.733 101.176C301.221 100.749 300.528 100.536 299.653 100.536C298.843 100.536 298.213 100.685 297.765 100.984C297.339 101.283 297.125 101.699 297.125 102.232C297.125 102.829 297.424 103.288 298.021 103.608C298.619 103.907 299.547 104.216 300.805 104.536C302.085 104.856 303.141 105.187 303.973 105.528C304.805 105.869 305.52 106.403 306.117 107.128C306.736 107.832 307.056 108.771 307.077 109.944C307.077 110.968 306.789 111.885 306.213 112.696C305.659 113.507 304.848 114.147 303.781 114.616C302.736 115.064 301.509 115.288 300.101 115.288Z" fill="black"/>
<path d="M911.696 801.972C912.344 801.012 913.232 800.232 914.36 799.632C915.512 799.032 916.82 798.732 918.284 798.732C919.988 798.732 921.524 799.152 922.892 799.992C924.284 800.832 925.376 802.032 926.168 803.592C926.984 805.128 927.392 806.916 927.392 808.956C927.392 810.996 926.984 812.808 926.168 814.392C925.376 815.952 924.284 817.164 922.892 818.028C921.524 818.892 919.988 819.324 918.284 819.324C916.796 819.324 915.488 819.036 914.36 818.46C913.256 817.86 912.368 817.092 911.696 816.156V819H906.656V792.36H911.696V801.972ZM922.244 808.956C922.244 807.756 921.992 806.724 921.488 805.86C921.008 804.972 920.36 804.3 919.544 803.844C918.752 803.388 917.888 803.16 916.952 803.16C916.04 803.16 915.176 803.4 914.36 803.88C913.568 804.336 912.92 805.008 912.416 805.896C911.936 806.784 911.696 807.828 911.696 809.028C911.696 810.228 911.936 811.272 912.416 812.16C912.92 813.048 913.568 813.732 914.36 814.212C915.176 814.668 916.04 814.896 916.952 814.896C917.888 814.896 918.752 814.656 919.544 814.176C920.36 813.696 921.008 813.012 921.488 812.124C921.992 811.236 922.244 810.18 922.244 808.956ZM950.134 799.056L937.786 828.432H932.422L936.742 818.496L928.75 799.056H934.402L939.55 812.988L944.77 799.056H950.134ZM970.105 819.252C968.353 819.252 966.769 818.952 965.353 818.352C963.961 817.752 962.857 816.888 962.041 815.76C961.225 814.632 960.805 813.3 960.781 811.764H966.181C966.253 812.796 966.613 813.612 967.261 814.212C967.933 814.812 968.845 815.112 969.997 815.112C971.173 815.112 972.097 814.836 972.769 814.284C973.441 813.708 973.777 812.964 973.777 812.052C973.777 811.308 973.549 810.696 973.093 810.216C972.637 809.736 972.061 809.364 971.365 809.1C970.693 808.812 969.757 808.5 968.557 808.164C966.925 807.684 965.593 807.216 964.561 806.76C963.553 806.28 962.677 805.572 961.933 804.636C961.213 803.676 960.853 802.404 960.853 800.82C960.853 799.332 961.225 798.036 961.969 796.932C962.713 795.828 963.757 794.988 965.101 794.412C966.445 793.812 967.981 793.512 969.709 793.512C972.301 793.512 974.401 794.148 976.009 795.42C977.641 796.668 978.541 798.42 978.709 800.676H973.165C973.117 799.812 972.745 799.104 972.049 798.552C971.377 797.976 970.477 797.688 969.349 797.688C968.365 797.688 967.573 797.94 966.973 798.444C966.397 798.948 966.109 799.68 966.109 800.64C966.109 801.312 966.325 801.876 966.757 802.332C967.213 802.764 967.765 803.124 968.413 803.412C969.085 803.676 970.021 803.988 971.221 804.348C972.853 804.828 974.185 805.308 975.217 805.788C976.249 806.268 977.137 806.988 977.881 807.948C978.625 808.908 978.997 810.168 978.997 811.728C978.997 813.072 978.649 814.32 977.953 815.472C977.257 816.624 976.237 817.548 974.893 818.244C973.549 818.916 971.953 819.252 970.105 819.252ZM994.599 798.768C996.111 798.768 997.455 799.104 998.631 799.776C999.807 800.424 1000.72 801.396 1001.37 802.692C1002.04 803.964 1002.37 805.5 1002.37 807.3V819H997.335V807.984C997.335 806.4 996.939 805.188 996.147 804.348C995.355 803.484 994.275 803.052 992.907 803.052C991.515 803.052 990.411 803.484 989.595 804.348C988.803 805.188 988.407 806.4 988.407 807.984V819H983.367V792.36H988.407V801.54C989.055 800.676 989.919 800.004 990.999 799.524C992.079 799.02 993.279 798.768 994.599 798.768ZM1005.87 808.956C1005.87 806.94 1006.27 805.152 1007.06 803.592C1007.88 802.032 1008.97 800.832 1010.34 799.992C1011.73 799.152 1013.28 798.732 1014.98 798.732C1016.47 798.732 1017.76 799.032 1018.87 799.632C1020 800.232 1020.9 800.988 1021.57 801.9V799.056H1026.64V819H1021.57V816.084C1020.92 817.02 1020.02 817.8 1018.87 818.424C1017.74 819.024 1016.43 819.324 1014.94 819.324C1013.26 819.324 1011.73 818.892 1010.34 818.028C1008.97 817.164 1007.88 815.952 1007.06 814.392C1006.27 812.808 1005.87 810.996 1005.87 808.956ZM1021.57 809.028C1021.57 807.804 1021.33 806.76 1020.85 805.896C1020.37 805.008 1019.72 804.336 1018.9 803.88C1018.09 803.4 1017.21 803.16 1016.28 803.16C1015.34 803.16 1014.48 803.388 1013.68 803.844C1012.89 804.3 1012.24 804.972 1011.74 805.86C1011.26 806.724 1011.02 807.756 1011.02 808.956C1011.02 810.156 1011.26 811.212 1011.74 812.124C1012.24 813.012 1012.89 813.696 1013.68 814.176C1014.5 814.656 1015.36 814.896 1016.28 814.896C1017.21 814.896 1018.09 814.668 1018.9 814.212C1019.72 813.732 1020.37 813.06 1020.85 812.196C1021.33 811.308 1021.57 810.252 1021.57 809.028ZM1050.65 799.056L1038.3 828.432H1032.93L1037.25 818.496L1029.26 799.056H1034.91L1040.06 812.988L1045.28 799.056H1050.65ZM1064.41 798.768C1066.79 798.768 1068.71 799.524 1070.17 801.036C1071.64 802.524 1072.37 804.612 1072.37 807.3V819H1067.33V807.984C1067.33 806.4 1066.93 805.188 1066.14 804.348C1065.35 803.484 1064.27 803.052 1062.9 803.052C1061.51 803.052 1060.41 803.484 1059.59 804.348C1058.8 805.188 1058.4 806.4 1058.4 807.984V819H1053.36V799.056H1058.4V801.54C1059.07 800.676 1059.93 800.004 1060.96 799.524C1062.01 799.02 1063.17 798.768 1064.41 798.768ZM1095.7 808.596C1095.7 809.316 1095.66 809.964 1095.56 810.54H1080.98C1081.1 811.98 1081.6 813.108 1082.49 813.924C1083.38 814.74 1084.47 815.148 1085.77 815.148C1087.64 815.148 1088.97 814.344 1089.76 812.736H1095.2C1094.62 814.656 1093.52 816.24 1091.89 817.488C1090.26 818.712 1088.25 819.324 1085.88 819.324C1083.96 819.324 1082.23 818.904 1080.69 818.064C1079.18 817.2 1077.99 815.988 1077.13 814.428C1076.29 812.868 1075.87 811.068 1075.87 809.028C1075.87 806.964 1076.29 805.152 1077.13 803.592C1077.97 802.032 1079.14 800.832 1080.66 799.992C1082.17 799.152 1083.91 798.732 1085.88 798.732C1087.77 798.732 1089.46 799.14 1090.95 799.956C1092.46 800.772 1093.63 801.936 1094.44 803.448C1095.28 804.936 1095.7 806.652 1095.7 808.596ZM1090.48 807.156C1090.46 805.86 1089.99 804.828 1089.08 804.06C1088.17 803.268 1087.05 802.872 1085.73 802.872C1084.48 802.872 1083.43 803.256 1082.56 804.024C1081.72 804.768 1081.21 805.812 1081.02 807.156H1090.48ZM1113 815.004H1121.28V819H1107.96V793.872H1113V815.004ZM1143.31 799.056V819H1138.24V816.48C1137.59 817.344 1136.74 818.028 1135.68 818.532C1134.65 819.012 1133.52 819.252 1132.3 819.252C1130.74 819.252 1129.36 818.928 1128.16 818.28C1126.96 817.608 1126.01 816.636 1125.31 815.364C1124.64 814.068 1124.3 812.532 1124.3 810.756V799.056H1129.34V810.036C1129.34 811.62 1129.74 812.844 1130.53 813.708C1131.32 814.548 1132.4 814.968 1133.77 814.968C1135.16 814.968 1136.26 814.548 1137.05 813.708C1137.84 812.844 1138.24 811.62 1138.24 810.036V799.056H1143.31ZM1155.92 819.324C1154.28 819.324 1152.82 819.036 1151.52 818.46C1150.23 817.86 1149.2 817.056 1148.43 816.048C1147.68 815.04 1147.28 813.924 1147.2 812.7H1152.28C1152.38 813.468 1152.75 814.104 1153.4 814.608C1154.07 815.112 1154.9 815.364 1155.88 815.364C1156.84 815.364 1157.58 815.172 1158.11 814.788C1158.66 814.404 1158.94 813.912 1158.94 813.312C1158.94 812.664 1158.6 812.184 1157.93 811.872C1157.28 811.536 1156.24 811.176 1154.8 810.792C1153.31 810.432 1152.09 810.06 1151.13 809.676C1150.19 809.292 1149.38 808.704 1148.68 807.912C1148.01 807.12 1147.67 806.052 1147.67 804.708C1147.67 803.604 1147.98 802.596 1148.61 801.684C1149.26 800.772 1150.17 800.052 1151.34 799.524C1152.54 798.996 1153.95 798.732 1155.56 798.732C1157.93 798.732 1159.83 799.332 1161.24 800.532C1162.66 801.708 1163.44 803.304 1163.58 805.32H1158.76C1158.69 804.528 1158.35 803.904 1157.75 803.448C1157.18 802.968 1156.4 802.728 1155.41 802.728C1154.5 802.728 1153.79 802.896 1153.29 803.232C1152.81 803.568 1152.57 804.036 1152.57 804.636C1152.57 805.308 1152.9 805.824 1153.58 806.184C1154.25 806.52 1155.29 806.868 1156.71 807.228C1158.15 807.588 1159.34 807.96 1160.27 808.344C1161.21 808.728 1162.01 809.328 1162.68 810.144C1163.38 810.936 1163.74 811.992 1163.76 813.312C1163.76 814.464 1163.44 815.496 1162.79 816.408C1162.17 817.32 1161.26 818.04 1160.06 818.568C1158.88 819.072 1157.5 819.324 1155.92 819.324ZM1175.53 819.324C1173.9 819.324 1172.44 819.036 1171.14 818.46C1169.85 817.86 1168.81 817.056 1168.05 816.048C1167.3 815.04 1166.89 813.924 1166.82 812.7H1171.9C1171.99 813.468 1172.37 814.104 1173.01 814.608C1173.69 815.112 1174.51 815.364 1175.5 815.364C1176.46 815.364 1177.2 815.172 1177.73 814.788C1178.28 814.404 1178.56 813.912 1178.56 813.312C1178.56 812.664 1178.22 812.184 1177.55 811.872C1176.9 811.536 1175.86 811.176 1174.42 810.792C1172.93 810.432 1171.71 810.06 1170.75 809.676C1169.81 809.292 1168.99 808.704 1168.3 807.912C1167.63 807.12 1167.29 806.052 1167.29 804.708C1167.29 803.604 1167.6 802.596 1168.23 801.684C1168.87 800.772 1169.79 800.052 1170.96 799.524C1172.16 798.996 1173.57 798.732 1175.17 798.732C1177.55 798.732 1179.45 799.332 1180.86 800.532C1182.28 801.708 1183.06 803.304 1183.2 805.32H1178.38C1178.31 804.528 1177.97 803.904 1177.37 803.448C1176.79 802.968 1176.01 802.728 1175.03 802.728C1174.12 802.728 1173.41 802.896 1172.91 803.232C1172.43 803.568 1172.19 804.036 1172.19 804.636C1172.19 805.308 1172.52 805.824 1173.19 806.184C1173.87 806.52 1174.91 806.868 1176.33 807.228C1177.77 807.588 1178.95 807.96 1179.89 808.344C1180.83 808.728 1181.63 809.328 1182.3 810.144C1183 810.936 1183.36 811.992 1183.38 813.312C1183.38 814.464 1183.06 815.496 1182.41 816.408C1181.79 817.32 1180.87 818.04 1179.67 818.568C1178.5 819.072 1177.12 819.324 1175.53 819.324ZM1190.08 796.68C1189.19 796.68 1188.44 796.404 1187.84 795.852C1187.27 795.276 1186.98 794.568 1186.98 793.728C1186.98 792.888 1187.27 792.192 1187.84 791.64C1188.44 791.064 1189.19 790.776 1190.08 790.776C1190.96 790.776 1191.7 791.064 1192.27 791.64C1192.87 792.192 1193.17 792.888 1193.17 793.728C1193.17 794.568 1192.87 795.276 1192.27 795.852C1191.7 796.404 1190.96 796.68 1190.08 796.68ZM1192.56 799.056V819H1187.52V799.056H1192.56ZM1216.08 808.596C1216.08 809.316 1216.03 809.964 1215.93 810.54H1201.35C1201.47 811.98 1201.98 813.108 1202.87 813.924C1203.75 814.74 1204.85 815.148 1206.14 815.148C1208.01 815.148 1209.35 814.344 1210.14 812.736H1215.57C1215 814.656 1213.89 816.24 1212.26 817.488C1210.63 818.712 1208.63 819.324 1206.25 819.324C1204.33 819.324 1202.6 818.904 1201.07 818.064C1199.55 817.2 1198.37 815.988 1197.5 814.428C1196.66 812.868 1196.24 811.068 1196.24 809.028C1196.24 806.964 1196.66 805.152 1197.5 803.592C1198.34 802.032 1199.52 800.832 1201.03 799.992C1202.54 799.152 1204.28 798.732 1206.25 798.732C1208.15 798.732 1209.84 799.14 1211.33 799.956C1212.84 800.772 1214 801.936 1214.82 803.448C1215.66 804.936 1216.08 806.652 1216.08 808.596ZM1210.86 807.156C1210.83 805.86 1210.37 804.828 1209.45 804.06C1208.54 803.268 1207.43 802.872 1206.11 802.872C1204.86 802.872 1203.8 803.256 1202.94 804.024C1202.1 804.768 1201.58 805.812 1201.39 807.156H1210.86ZM1224.8 802.152C1225.45 801.096 1226.29 800.268 1227.32 799.668C1228.37 799.068 1229.57 798.768 1230.92 798.768V804.06H1229.59C1228 804.06 1226.8 804.432 1225.99 805.176C1225.19 805.92 1224.8 807.216 1224.8 809.064V819H1219.76V799.056H1224.8V802.152Z" fill="black"/>
<path d="M863.201 92.664V115H858.721V100.472L852.737 115H849.345L843.329 100.472V115H838.849V92.664H843.937L851.041 109.272L858.145 92.664H863.201ZM875.502 115.288C873.795 115.288 872.259 114.915 870.894 114.168C869.529 113.4 868.451 112.323 867.662 110.936C866.894 109.549 866.51 107.949 866.51 106.136C866.51 104.323 866.905 102.723 867.694 101.336C868.505 99.9493 869.603 98.8827 870.99 98.136C872.377 97.368 873.923 96.984 875.63 96.984C877.337 96.984 878.883 97.368 880.27 98.136C881.657 98.8827 882.745 99.9493 883.534 101.336C884.345 102.723 884.75 104.323 884.75 106.136C884.75 107.949 884.334 109.549 883.502 110.936C882.691 112.323 881.582 113.4 880.174 114.168C878.787 114.915 877.23 115.288 875.502 115.288ZM875.502 111.384C876.313 111.384 877.07 111.192 877.774 110.808C878.499 110.403 879.075 109.805 879.502 109.016C879.929 108.227 880.142 107.267 880.142 106.136C880.142 104.451 879.694 103.16 878.798 102.264C877.923 101.347 876.846 100.888 875.566 100.888C874.286 100.888 873.209 101.347 872.334 102.264C871.481 103.16 871.054 104.451 871.054 106.136C871.054 107.821 871.47 109.123 872.302 110.04C873.155 110.936 874.222 111.384 875.502 111.384ZM894.82 115.288C893.369 115.288 892.068 115.032 890.916 114.52C889.764 113.987 888.847 113.272 888.164 112.376C887.503 111.48 887.14 110.488 887.076 109.4H891.588C891.673 110.083 892.004 110.648 892.58 111.096C893.177 111.544 893.913 111.768 894.788 111.768C895.641 111.768 896.303 111.597 896.772 111.256C897.263 110.915 897.508 110.477 897.508 109.944C897.508 109.368 897.209 108.941 896.612 108.664C896.036 108.365 895.108 108.045 893.828 107.704C892.505 107.384 891.417 107.053 890.564 106.712C889.732 106.371 889.007 105.848 888.388 105.144C887.791 104.44 887.492 103.491 887.492 102.296C887.492 101.315 887.769 100.419 888.324 99.608C888.9 98.7973 889.711 98.1573 890.756 97.688C891.823 97.2187 893.071 96.984 894.5 96.984C896.612 96.984 898.297 97.5173 899.556 98.584C900.815 99.6293 901.508 101.048 901.636 102.84H897.348C897.284 102.136 896.985 101.581 896.452 101.176C895.94 100.749 895.247 100.536 894.372 100.536C893.561 100.536 892.932 100.685 892.484 100.984C892.057 101.283 891.844 101.699 891.844 102.232C891.844 102.829 892.143 103.288 892.74 103.608C893.337 103.907 894.265 104.216 895.524 104.536C896.804 104.856 897.86 105.187 898.692 105.528C899.524 105.869 900.239 106.403 900.836 107.128C901.455 107.832 901.775 108.771 901.796 109.944C901.796 110.968 901.508 111.885 900.932 112.696C900.377 113.507 899.567 114.147 898.5 114.616C897.455 115.064 896.228 115.288 894.82 115.288ZM910.69 100.952V109.528C910.69 110.125 910.828 110.563 911.106 110.84C911.404 111.096 911.895 111.224 912.578 111.224H914.658V115H911.842C908.066 115 906.178 113.165 906.178 109.496V100.952H904.066V97.272H906.178V92.888H910.69V97.272H914.658V100.952H910.69ZM941.793 99.576C941.793 100.771 941.505 101.891 940.929 102.936C940.374 103.981 939.489 104.824 938.273 105.464C937.078 106.104 935.564 106.424 933.729 106.424H929.985V115H925.505V92.664H933.729C935.457 92.664 936.929 92.9627 938.145 93.56C939.361 94.1573 940.268 94.9787 940.865 96.024C941.484 97.0693 941.793 98.2533 941.793 99.576ZM933.537 102.808C934.774 102.808 935.692 102.531 936.289 101.976C936.886 101.4 937.185 100.6 937.185 99.576C937.185 97.4 935.969 96.312 933.537 96.312H929.985V102.808H933.537ZM949.454 100.024C950.03 99.0853 950.776 98.3493 951.694 97.816C952.632 97.2827 953.699 97.016 954.894 97.016V101.72H953.71C952.302 101.72 951.235 102.051 950.51 102.712C949.806 103.373 949.454 104.525 949.454 106.168V115H944.974V97.272H949.454V100.024ZM965.783 115.288C964.076 115.288 962.54 114.915 961.175 114.168C959.81 113.4 958.732 112.323 957.943 110.936C957.175 109.549 956.791 107.949 956.791 106.136C956.791 104.323 957.186 102.723 957.975 101.336C958.786 99.9493 959.884 98.8827 961.271 98.136C962.658 97.368 964.204 96.984 965.911 96.984C967.618 96.984 969.164 97.368 970.551 98.136C971.938 98.8827 973.026 99.9493 973.815 101.336C974.626 102.723 975.031 104.323 975.031 106.136C975.031 107.949 974.615 109.549 973.783 110.936C972.972 112.323 971.863 113.4 970.455 114.168C969.068 114.915 967.511 115.288 965.783 115.288ZM965.783 111.384C966.594 111.384 967.351 111.192 968.055 110.808C968.78 110.403 969.356 109.805 969.783 109.016C970.21 108.227 970.423 107.267 970.423 106.136C970.423 104.451 969.975 103.16 969.079 102.264C968.204 101.347 967.127 100.888 965.847 100.888C964.567 100.888 963.49 101.347 962.615 102.264C961.762 103.16 961.335 104.451 961.335 106.136C961.335 107.821 961.751 109.123 962.583 110.04C963.436 110.936 964.503 111.384 965.783 111.384ZM986.445 100.952H983.341V115H978.797V100.952H976.781V97.272H978.797V96.376C978.797 94.2 979.416 92.6 980.653 91.576C981.891 90.552 983.757 90.072 986.253 90.136V93.912C985.165 93.8907 984.408 94.072 983.981 94.456C983.555 94.84 983.341 95.5333 983.341 96.536V97.272H986.445V100.952ZM991.621 95.16C990.831 95.16 990.17 94.9147 989.637 94.424C989.125 93.912 988.869 93.2827 988.869 92.536C988.869 91.7893 989.125 91.1707 989.637 90.68C990.17 90.168 990.831 89.912 991.621 89.912C992.41 89.912 993.061 90.168 993.573 90.68C994.106 91.1707 994.373 91.7893 994.373 92.536C994.373 93.2827 994.106 93.912 993.573 94.424C993.061 94.9147 992.41 95.16 991.621 95.16ZM993.829 97.272V115H989.349V97.272H993.829ZM1003.47 100.952V109.528C1003.47 110.125 1003.61 110.563 1003.89 110.84C1004.19 111.096 1004.68 111.224 1005.36 111.224H1007.44V115H1004.62C1000.85 115 998.959 113.165 998.959 109.496V100.952H996.847V97.272H998.959V92.888H1003.47V97.272H1007.44V100.952H1003.47ZM1009.51 106.072C1009.51 104.28 1009.86 102.691 1010.57 101.304C1011.29 99.9173 1012.26 98.8507 1013.48 98.104C1014.71 97.3573 1016.09 96.984 1017.61 96.984C1018.93 96.984 1020.08 97.2507 1021.06 97.784C1022.06 98.3173 1022.86 98.9893 1023.46 99.8V97.272H1027.97V115H1023.46V112.408C1022.89 113.24 1022.09 113.933 1021.06 114.488C1020.06 115.021 1018.9 115.288 1017.57 115.288C1016.08 115.288 1014.71 114.904 1013.48 114.136C1012.26 113.368 1011.29 112.291 1010.57 110.904C1009.86 109.496 1009.51 107.885 1009.51 106.072ZM1023.46 106.136C1023.46 105.048 1023.25 104.12 1022.82 103.352C1022.39 102.563 1021.82 101.965 1021.09 101.56C1020.37 101.133 1019.59 100.92 1018.76 100.92C1017.93 100.92 1017.16 101.123 1016.45 101.528C1015.75 101.933 1015.17 102.531 1014.73 103.32C1014.3 104.088 1014.09 105.005 1014.09 106.072C1014.09 107.139 1014.3 108.077 1014.73 108.888C1015.17 109.677 1015.75 110.285 1016.45 110.712C1017.18 111.139 1017.95 111.352 1018.76 111.352C1019.59 111.352 1020.37 111.149 1021.09 110.744C1021.82 110.317 1022.39 109.72 1022.82 108.952C1023.25 108.163 1023.46 107.224 1023.46 106.136ZM1036.83 99.864C1037.4 99.0107 1038.19 98.3173 1039.2 97.784C1040.22 97.2507 1041.38 96.984 1042.68 96.984C1044.2 96.984 1045.56 97.3573 1046.78 98.104C1048.02 98.8507 1048.99 99.9173 1049.69 101.304C1050.42 102.669 1050.78 104.259 1050.78 106.072C1050.78 107.885 1050.42 109.496 1049.69 110.904C1048.99 112.291 1048.02 113.368 1046.78 114.136C1045.56 114.904 1044.2 115.288 1042.68 115.288C1041.36 115.288 1040.2 115.032 1039.2 114.52C1038.22 113.987 1037.43 113.304 1036.83 112.472V115H1032.35V91.32H1036.83V99.864ZM1046.2 106.072C1046.2 105.005 1045.98 104.088 1045.53 103.32C1045.11 102.531 1044.53 101.933 1043.8 101.528C1043.1 101.123 1042.33 100.92 1041.5 100.92C1040.69 100.92 1039.92 101.133 1039.2 101.56C1038.49 101.965 1037.92 102.563 1037.47 103.352C1037.04 104.141 1036.83 105.069 1036.83 106.136C1036.83 107.203 1037.04 108.131 1037.47 108.92C1037.92 109.709 1038.49 110.317 1039.2 110.744C1039.92 111.149 1040.69 111.352 1041.5 111.352C1042.33 111.352 1043.1 111.139 1043.8 110.712C1044.53 110.285 1045.11 109.677 1045.53 108.888C1045.98 108.099 1046.2 107.16 1046.2 106.072ZM1058.52 91.32V115H1054.04V91.32H1058.52ZM1079.42 105.752C1079.42 106.392 1079.38 106.968 1079.29 107.48H1066.33C1066.44 108.76 1066.89 109.763 1067.68 110.488C1068.47 111.213 1069.44 111.576 1070.59 111.576C1072.25 111.576 1073.44 110.861 1074.14 109.432H1078.97C1078.46 111.139 1077.48 112.547 1076.03 113.656C1074.58 114.744 1072.8 115.288 1070.69 115.288C1068.98 115.288 1067.44 114.915 1066.08 114.168C1064.73 113.4 1063.68 112.323 1062.91 110.936C1062.16 109.549 1061.79 107.949 1061.79 106.136C1061.79 104.301 1062.16 102.691 1062.91 101.304C1063.66 99.9173 1064.7 98.8507 1066.05 98.104C1067.39 97.3573 1068.94 96.984 1070.69 96.984C1072.37 96.984 1073.88 97.3467 1075.2 98.072C1076.54 98.7973 1077.58 99.832 1078.3 101.176C1079.05 102.499 1079.42 104.024 1079.42 105.752ZM1074.78 104.472C1074.76 103.32 1074.35 102.403 1073.53 101.72C1072.72 101.016 1071.73 100.664 1070.56 100.664C1069.45 100.664 1068.51 101.005 1067.74 101.688C1067 102.349 1066.54 103.277 1066.37 104.472H1074.78ZM1089.23 103.8C1089.23 101.603 1089.72 99.64 1090.7 97.912C1091.7 96.1627 1093.06 94.808 1094.77 93.848C1096.49 92.8667 1098.42 92.376 1100.56 92.376C1103.05 92.376 1105.24 93.016 1107.12 94.296C1108.99 95.576 1110.31 97.3467 1111.05 99.608H1105.9C1105.39 98.5413 1104.66 97.7413 1103.73 97.208C1102.81 96.6747 1101.74 96.408 1100.53 96.408C1099.22 96.408 1098.06 96.7173 1097.04 97.336C1096.03 97.9333 1095.25 98.7867 1094.67 99.896C1094.11 101.005 1093.84 102.307 1093.84 103.8C1093.84 105.272 1094.11 106.573 1094.67 107.704C1095.25 108.813 1096.03 109.677 1097.04 110.296C1098.06 110.893 1099.22 111.192 1100.53 111.192C1101.74 111.192 1102.81 110.925 1103.73 110.392C1104.66 109.837 1105.39 109.027 1105.9 107.96H1111.05C1110.31 110.243 1108.99 112.024 1107.12 113.304C1105.26 114.563 1103.07 115.192 1100.56 115.192C1098.42 115.192 1096.49 114.712 1094.77 113.752C1093.06 112.771 1091.7 111.416 1090.7 109.688C1089.72 107.96 1089.23 105.997 1089.23 103.8ZM1117.15 95.16C1116.36 95.16 1115.7 94.9147 1115.17 94.424C1114.66 93.912 1114.4 93.2827 1114.4 92.536C1114.4 91.7893 1114.66 91.1707 1115.17 90.68C1115.7 90.168 1116.36 89.912 1117.15 89.912C1117.94 89.912 1118.59 90.168 1119.1 90.68C1119.64 91.1707 1119.9 91.7893 1119.9 92.536C1119.9 93.2827 1119.64 93.912 1119.1 94.424C1118.59 94.9147 1117.94 95.16 1117.15 95.16ZM1119.36 97.272V115H1114.88V97.272H1119.36ZM1129 100.952V109.528C1129 110.125 1129.14 110.563 1129.42 110.84C1129.72 111.096 1130.21 111.224 1130.89 111.224H1132.97V115H1130.15C1126.38 115 1124.49 113.165 1124.49 109.496V100.952H1122.38V97.272H1124.49V92.888H1129V97.272H1132.97V100.952H1129ZM1153.15 97.272L1142.18 123.384H1137.41L1141.25 114.552L1134.14 97.272H1139.17L1143.74 109.656L1148.38 97.272H1153.15Z" fill="black"/>
<path d="M842.86 473.448H850.22V477H838.38V454.664H842.86V473.448ZM869.547 467.752C869.547 468.392 869.505 468.968 869.419 469.48H856.459C856.566 470.76 857.014 471.763 857.803 472.488C858.593 473.213 859.563 473.576 860.715 473.576C862.379 473.576 863.563 472.861 864.267 471.432H869.099C868.587 473.139 867.606 474.547 866.155 475.656C864.705 476.744 862.923 477.288 860.811 477.288C859.105 477.288 857.569 476.915 856.203 476.168C854.859 475.4 853.803 474.323 853.035 472.936C852.289 471.549 851.915 469.949 851.915 468.136C851.915 466.301 852.289 464.691 853.035 463.304C853.782 461.917 854.827 460.851 856.171 460.104C857.515 459.357 859.062 458.984 860.811 458.984C862.497 458.984 864.001 459.347 865.323 460.072C866.667 460.797 867.702 461.832 868.427 463.176C869.174 464.499 869.547 466.024 869.547 467.752ZM864.907 466.472C864.886 465.32 864.47 464.403 863.659 463.72C862.849 463.016 861.857 462.664 860.683 462.664C859.574 462.664 858.635 463.005 857.867 463.688C857.121 464.349 856.662 465.277 856.491 466.472H864.907ZM871.665 468.072C871.665 466.28 872.017 464.691 872.721 463.304C873.447 461.917 874.417 460.851 875.633 460.104C876.871 459.357 878.247 458.984 879.761 458.984C881.084 458.984 882.236 459.251 883.217 459.784C884.22 460.317 885.02 460.989 885.617 461.8V459.272H890.129V477H885.617V474.408C885.041 475.24 884.241 475.933 883.217 476.488C882.215 477.021 881.052 477.288 879.729 477.288C878.236 477.288 876.871 476.904 875.633 476.136C874.417 475.368 873.447 474.291 872.721 472.904C872.017 471.496 871.665 469.885 871.665 468.072ZM885.617 468.136C885.617 467.048 885.404 466.12 884.977 465.352C884.551 464.563 883.975 463.965 883.249 463.56C882.524 463.133 881.745 462.92 880.913 462.92C880.081 462.92 879.313 463.123 878.609 463.528C877.905 463.933 877.329 464.531 876.881 465.32C876.455 466.088 876.241 467.005 876.241 468.072C876.241 469.139 876.455 470.077 876.881 470.888C877.329 471.677 877.905 472.285 878.609 472.712C879.335 473.139 880.103 473.352 880.913 473.352C881.745 473.352 882.524 473.149 883.249 472.744C883.975 472.317 884.551 471.72 884.977 470.952C885.404 470.163 885.617 469.224 885.617 468.136ZM901.289 477.288C899.838 477.288 898.537 477.032 897.385 476.52C896.233 475.987 895.316 475.272 894.633 474.376C893.972 473.48 893.609 472.488 893.545 471.4H898.057C898.142 472.083 898.473 472.648 899.049 473.096C899.646 473.544 900.382 473.768 901.257 473.768C902.11 473.768 902.772 473.597 903.241 473.256C903.732 472.915 903.977 472.477 903.977 471.944C903.977 471.368 903.678 470.941 903.081 470.664C902.505 470.365 901.577 470.045 900.297 469.704C898.974 469.384 897.886 469.053 897.033 468.712C896.201 468.371 895.476 467.848 894.857 467.144C894.26 466.44 893.961 465.491 893.961 464.296C893.961 463.315 894.238 462.419 894.793 461.608C895.369 460.797 896.18 460.157 897.225 459.688C898.292 459.219 899.54 458.984 900.969 458.984C903.081 458.984 904.766 459.517 906.025 460.584C907.284 461.629 907.977 463.048 908.105 464.84H903.817C903.753 464.136 903.454 463.581 902.921 463.176C902.409 462.749 901.716 462.536 900.841 462.536C900.03 462.536 899.401 462.685 898.953 462.984C898.526 463.283 898.313 463.699 898.313 464.232C898.313 464.829 898.612 465.288 899.209 465.608C899.806 465.907 900.734 466.216 901.993 466.536C903.273 466.856 904.329 467.187 905.161 467.528C905.993 467.869 906.708 468.403 907.305 469.128C907.924 469.832 908.244 470.771 908.265 471.944C908.265 472.968 907.977 473.885 907.401 474.696C906.846 475.507 906.036 476.147 904.969 476.616C903.924 477.064 902.697 477.288 901.289 477.288ZM917.158 462.952V471.528C917.158 472.125 917.297 472.563 917.574 472.84C917.873 473.096 918.364 473.224 919.046 473.224H921.126V477H918.31C914.534 477 912.646 475.165 912.646 471.496V462.952H910.534V459.272H912.646V454.888H917.158V459.272H921.126V462.952H917.158ZM948.262 461.576C948.262 462.771 947.974 463.891 947.398 464.936C946.843 465.981 945.958 466.824 944.742 467.464C943.547 468.104 942.032 468.424 940.198 468.424H936.454V477H931.974V454.664H940.198C941.926 454.664 943.398 454.963 944.614 455.56C945.83 456.157 946.736 456.979 947.334 458.024C947.952 459.069 948.262 460.253 948.262 461.576ZM940.006 464.808C941.243 464.808 942.16 464.531 942.758 463.976C943.355 463.4 943.654 462.6 943.654 461.576C943.654 459.4 942.438 458.312 940.006 458.312H936.454V464.808H940.006ZM955.922 462.024C956.498 461.085 957.245 460.349 958.162 459.816C959.101 459.283 960.168 459.016 961.362 459.016V463.72H960.178C958.77 463.72 957.704 464.051 956.978 464.712C956.274 465.373 955.922 466.525 955.922 468.168V477H951.442V459.272H955.922V462.024ZM972.252 477.288C970.545 477.288 969.009 476.915 967.644 476.168C966.279 475.4 965.201 474.323 964.412 472.936C963.644 471.549 963.26 469.949 963.26 468.136C963.26 466.323 963.655 464.723 964.444 463.336C965.255 461.949 966.353 460.883 967.74 460.136C969.127 459.368 970.673 458.984 972.38 458.984C974.087 458.984 975.633 459.368 977.02 460.136C978.407 460.883 979.495 461.949 980.284 463.336C981.095 464.723 981.5 466.323 981.5 468.136C981.5 469.949 981.084 471.549 980.252 472.936C979.441 474.323 978.332 475.4 976.924 476.168C975.537 476.915 973.98 477.288 972.252 477.288ZM972.252 473.384C973.063 473.384 973.82 473.192 974.524 472.808C975.249 472.403 975.825 471.805 976.252 471.016C976.679 470.227 976.892 469.267 976.892 468.136C976.892 466.451 976.444 465.16 975.548 464.264C974.673 463.347 973.596 462.888 972.316 462.888C971.036 462.888 969.959 463.347 969.084 464.264C968.231 465.16 967.804 466.451 967.804 468.136C967.804 469.821 968.22 471.123 969.052 472.04C969.905 472.936 970.972 473.384 972.252 473.384ZM992.914 462.952H989.81V477H985.266V462.952H983.25V459.272H985.266V458.376C985.266 456.2 985.885 454.6 987.122 453.576C988.359 452.552 990.226 452.072 992.722 452.136V455.912C991.634 455.891 990.877 456.072 990.45 456.456C990.023 456.84 989.81 457.533 989.81 458.536V459.272H992.914V462.952ZM998.089 457.16C997.3 457.16 996.639 456.915 996.105 456.424C995.593 455.912 995.337 455.283 995.337 454.536C995.337 453.789 995.593 453.171 996.105 452.68C996.639 452.168 997.3 451.912 998.089 451.912C998.879 451.912 999.529 452.168 1000.04 452.68C1000.57 453.171 1000.84 453.789 1000.84 454.536C1000.84 455.283 1000.57 455.912 1000.04 456.424C999.529 456.915 998.879 457.16 998.089 457.16ZM1000.3 459.272V477H995.817V459.272H1000.3ZM1009.94 462.952V471.528C1009.94 472.125 1010.08 472.563 1010.36 472.84C1010.65 473.096 1011.14 473.224 1011.83 473.224H1013.91V477H1011.09C1007.32 477 1005.43 475.165 1005.43 471.496V462.952H1003.32V459.272H1005.43V454.888H1009.94V459.272H1013.91V462.952H1009.94ZM1015.98 468.072C1015.98 466.28 1016.33 464.691 1017.03 463.304C1017.76 461.917 1018.73 460.851 1019.95 460.104C1021.18 459.357 1022.56 458.984 1024.07 458.984C1025.4 458.984 1026.55 459.251 1027.53 459.784C1028.53 460.317 1029.33 460.989 1029.93 461.8V459.272H1034.44V477H1029.93V474.408C1029.35 475.24 1028.55 475.933 1027.53 476.488C1026.53 477.021 1025.36 477.288 1024.04 477.288C1022.55 477.288 1021.18 476.904 1019.95 476.136C1018.73 475.368 1017.76 474.291 1017.03 472.904C1016.33 471.496 1015.98 469.885 1015.98 468.072ZM1029.93 468.136C1029.93 467.048 1029.72 466.12 1029.29 465.352C1028.86 464.563 1028.29 463.965 1027.56 463.56C1026.84 463.133 1026.06 462.92 1025.23 462.92C1024.39 462.92 1023.63 463.123 1022.92 463.528C1022.22 463.933 1021.64 464.531 1021.19 465.32C1020.77 466.088 1020.55 467.005 1020.55 468.072C1020.55 469.139 1020.77 470.077 1021.19 470.888C1021.64 471.677 1022.22 472.285 1022.92 472.712C1023.65 473.139 1024.42 473.352 1025.23 473.352C1026.06 473.352 1026.84 473.149 1027.56 472.744C1028.29 472.317 1028.86 471.72 1029.29 470.952C1029.72 470.163 1029.93 469.224 1029.93 468.136ZM1043.3 461.864C1043.87 461.011 1044.66 460.317 1045.67 459.784C1046.69 459.251 1047.85 458.984 1049.15 458.984C1050.67 458.984 1052.03 459.357 1053.25 460.104C1054.49 460.851 1055.46 461.917 1056.16 463.304C1056.89 464.669 1057.25 466.259 1057.25 468.072C1057.25 469.885 1056.89 471.496 1056.16 472.904C1055.46 474.291 1054.49 475.368 1053.25 476.136C1052.03 476.904 1050.67 477.288 1049.15 477.288C1047.83 477.288 1046.67 477.032 1045.67 476.52C1044.68 475.987 1043.89 475.304 1043.3 474.472V477H1038.82V453.32H1043.3V461.864ZM1052.67 468.072C1052.67 467.005 1052.45 466.088 1052 465.32C1051.57 464.531 1051 463.933 1050.27 463.528C1049.57 463.123 1048.8 462.92 1047.97 462.92C1047.16 462.92 1046.39 463.133 1045.67 463.56C1044.96 463.965 1044.39 464.563 1043.94 465.352C1043.51 466.141 1043.3 467.069 1043.3 468.136C1043.3 469.203 1043.51 470.131 1043.94 470.92C1044.39 471.709 1044.96 472.317 1045.67 472.744C1046.39 473.149 1047.16 473.352 1047.97 473.352C1048.8 473.352 1049.57 473.139 1050.27 472.712C1051 472.285 1051.57 471.677 1052 470.888C1052.45 470.099 1052.67 469.16 1052.67 468.072ZM1064.98 453.32V477H1060.5V453.32H1064.98ZM1085.89 467.752C1085.89 468.392 1085.85 468.968 1085.76 469.48H1072.8C1072.91 470.76 1073.36 471.763 1074.15 472.488C1074.94 473.213 1075.91 473.576 1077.06 473.576C1078.72 473.576 1079.91 472.861 1080.61 471.432H1085.44C1084.93 473.139 1083.95 474.547 1082.5 475.656C1081.05 476.744 1079.27 477.288 1077.16 477.288C1075.45 477.288 1073.91 476.915 1072.55 476.168C1071.2 475.4 1070.15 474.323 1069.38 472.936C1068.63 471.549 1068.26 469.949 1068.26 468.136C1068.26 466.301 1068.63 464.691 1069.38 463.304C1070.13 461.917 1071.17 460.851 1072.52 460.104C1073.86 459.357 1075.41 458.984 1077.16 458.984C1078.84 458.984 1080.34 459.347 1081.67 460.072C1083.01 460.797 1084.05 461.832 1084.77 463.176C1085.52 464.499 1085.89 466.024 1085.89 467.752ZM1081.25 466.472C1081.23 465.32 1080.81 464.403 1080 463.72C1079.19 463.016 1078.2 462.664 1077.03 462.664C1075.92 462.664 1074.98 463.005 1074.21 463.688C1073.46 464.349 1073.01 465.277 1072.84 466.472H1081.25ZM1095.7 465.8C1095.7 463.603 1096.19 461.64 1097.17 459.912C1098.17 458.163 1099.53 456.808 1101.23 455.848C1102.96 454.867 1104.89 454.376 1107.03 454.376C1109.52 454.376 1111.71 455.016 1113.59 456.296C1115.46 457.576 1116.78 459.347 1117.52 461.608H1112.37C1111.86 460.541 1111.13 459.741 1110.19 459.208C1109.28 458.675 1108.21 458.408 1106.99 458.408C1105.69 458.408 1104.53 458.717 1103.51 459.336C1102.5 459.933 1101.71 460.787 1101.14 461.896C1100.58 463.005 1100.31 464.307 1100.31 465.8C1100.31 467.272 1100.58 468.573 1101.14 469.704C1101.71 470.813 1102.5 471.677 1103.51 472.296C1104.53 472.893 1105.69 473.192 1106.99 473.192C1108.21 473.192 1109.28 472.925 1110.19 472.392C1111.13 471.837 1111.86 471.027 1112.37 469.96H1117.52C1116.78 472.243 1115.46 474.024 1113.59 475.304C1111.73 476.563 1109.54 477.192 1107.03 477.192C1104.89 477.192 1102.96 476.712 1101.23 475.752C1099.53 474.771 1098.17 473.416 1097.17 471.688C1096.19 469.96 1095.7 467.997 1095.7 465.8ZM1123.62 457.16C1122.83 457.16 1122.17 456.915 1121.64 456.424C1121.12 455.912 1120.87 455.283 1120.87 454.536C1120.87 453.789 1121.12 453.171 1121.64 452.68C1122.17 452.168 1122.83 451.912 1123.62 451.912C1124.41 451.912 1125.06 452.168 1125.57 452.68C1126.11 453.171 1126.37 453.789 1126.37 454.536C1126.37 455.283 1126.11 455.912 1125.57 456.424C1125.06 456.915 1124.41 457.16 1123.62 457.16ZM1125.83 459.272V477H1121.35V459.272H1125.83ZM1135.47 462.952V471.528C1135.47 472.125 1135.61 472.563 1135.89 472.84C1136.19 473.096 1136.68 473.224 1137.36 473.224H1139.44V477H1136.62C1132.85 477 1130.96 475.165 1130.96 471.496V462.952H1128.85V459.272H1130.96V454.888H1135.47V459.272H1139.44V462.952H1135.47ZM1159.62 459.272L1148.65 485.384H1143.88L1147.72 476.552L1140.61 459.272H1145.64L1150.21 471.656L1154.85 459.272H1159.62Z" fill="black"/>
</g>
<defs>
<filter id="filter0_f_4_52" x="-338.52" y="-336.157" width="867.057" height="832.314" filterUnits="userSpaceOnUse" color-interpolation-filters="sRGB">
<feFlood flood-opacity="0" result="BackgroundImageFix"/>
<feBlend mode="normal" in="SourceGraphic" in2="BackgroundImageFix" result="shape"/>
<feGaussianBlur stdDeviation="150" result="effect1_foregroundBlur_4_52"/>
</filter>
<linearGradient id="paint0_linear_4_52" x1="95.0089" y1="-36.1476" x2="95.0089" y2="196.148" gradientUnits="userSpaceOnUse">
<stop stop-color="#9FE96E"/>
<stop offset="1" stop-color="#59833E"/>
</linearGradient>
<clipPath id="clip0_4_52">
<rect width="1600" height="900" fill="white"/>
</clipPath>
</defs>
</svg>
