<svg width="1600" height="900" viewBox="0 0 1600 900" fill="none" xmlns="http://www.w3.org/2000/svg">
<g clip-path="url(#clip0_1_2)">
<rect width="1600" height="900" fill="#2F2F2F"/>
<rect x="-69" y="749.287" width="268" height="35.3027" transform="rotate(-13 -69 749.287)" fill="#9FE96E"/>
<rect x="196.298" y="972.305" width="268" height="35.3027" transform="rotate(-98 196.298 972.305)" fill="#9FE96E"/>
<rect x="-89" y="967.245" width="352.476" height="35.3027" transform="rotate(-41 -89 967.245)" fill="#9FE96E"/>
<path d="M112 772H1488V808C1488 841.137 1461.14 868 1428 868H172C138.863 868 112 841.137 112 808V772Z" fill="black"/>
<path d="M195.208 838L183.016 823.072V838H176.296V804.496H183.016V819.52L195.208 804.496H203.32L189.496 821.104L203.704 838H195.208ZM232.557 814.864C232.557 816.656 232.125 818.336 231.26 819.904C230.429 821.472 229.101 822.736 227.277 823.696C225.485 824.656 223.213 825.136 220.461 825.136H214.845V838H208.125V804.496H220.461C223.053 804.496 225.261 804.944 227.085 805.84C228.909 806.736 230.269 807.968 231.165 809.536C232.093 811.104 232.557 812.88 232.557 814.864ZM220.173 819.712C222.029 819.712 223.405 819.296 224.301 818.464C225.197 817.6 225.645 816.4 225.645 814.864C225.645 811.6 223.821 809.968 220.173 809.968H214.845V819.712H220.173ZM244.048 804.496V838H237.328V804.496H244.048ZM298.653 804.496V838H291.933V816.208L282.957 838H277.869L268.845 816.208V838H262.125V804.496H269.757L280.413 829.408L291.069 804.496H298.653ZM330.016 824.128C330.016 825.088 329.952 825.952 329.824 826.72H310.384C310.544 828.64 311.216 830.144 312.4 831.232C313.584 832.32 315.04 832.864 316.768 832.864C319.264 832.864 321.04 831.792 322.096 829.648H329.344C328.576 832.208 327.104 834.32 324.928 835.984C322.752 837.616 320.08 838.432 316.912 838.432C314.352 838.432 312.048 837.872 310 836.752C307.984 835.6 306.4 833.984 305.248 831.904C304.128 829.824 303.568 827.424 303.568 824.704C303.568 821.952 304.128 819.536 305.248 817.456C306.368 815.376 307.936 813.776 309.952 812.656C311.968 811.536 314.288 810.976 316.912 810.976C319.44 810.976 321.696 811.52 323.68 812.608C325.696 813.696 327.248 815.248 328.336 817.264C329.456 819.248 330.016 821.536 330.016 824.128ZM323.056 822.208C323.024 820.48 322.4 819.104 321.184 818.08C319.968 817.024 318.48 816.496 316.72 816.496C315.056 816.496 313.648 817.008 312.496 818.032C311.376 819.024 310.688 820.416 310.432 822.208H323.056ZM342.745 816.928V829.792C342.745 830.688 342.953 831.344 343.369 831.76C343.817 832.144 344.553 832.336 345.577 832.336H348.697V838H344.473C338.809 838 335.977 835.248 335.977 829.744V816.928H332.809V811.408H335.977V804.832H342.745V811.408H348.697V816.928H342.745ZM360.251 815.536C361.115 814.128 362.235 813.024 363.611 812.224C365.019 811.424 366.619 811.024 368.411 811.024V818.08H366.635C364.523 818.08 362.923 818.576 361.835 819.568C360.779 820.56 360.251 822.288 360.251 824.752V838H353.531V811.408H360.251V815.536ZM376.345 808.24C375.161 808.24 374.169 807.872 373.369 807.136C372.601 806.368 372.217 805.424 372.217 804.304C372.217 803.184 372.601 802.256 373.369 801.52C374.169 800.752 375.161 800.368 376.345 800.368C377.529 800.368 378.505 800.752 379.273 801.52C380.073 802.256 380.473 803.184 380.473 804.304C380.473 805.424 380.073 806.368 379.273 807.136C378.505 807.872 377.529 808.24 376.345 808.24ZM379.657 811.408V838H372.937V811.408H379.657ZM384.568 824.704C384.568 821.952 385.128 819.552 386.248 817.504C387.368 815.424 388.92 813.824 390.904 812.704C392.888 811.552 395.16 810.976 397.72 810.976C401.016 810.976 403.736 811.808 405.88 813.472C408.056 815.104 409.512 817.408 410.248 820.384H403C402.616 819.232 401.96 818.336 401.032 817.696C400.136 817.024 399.016 816.688 397.672 816.688C395.752 816.688 394.232 817.392 393.112 818.8C391.992 820.176 391.432 822.144 391.432 824.704C391.432 827.232 391.992 829.2 393.112 830.608C394.232 831.984 395.752 832.672 397.672 832.672C400.392 832.672 402.168 831.456 403 829.024H410.248C409.512 831.904 408.056 834.192 405.88 835.888C403.704 837.584 400.984 838.432 397.72 838.432C395.16 838.432 392.888 837.872 390.904 836.752C388.92 835.6 387.368 834 386.248 831.952C385.128 829.872 384.568 827.456 384.568 824.704ZM425.347 838.432C423.171 838.432 421.219 838.048 419.491 837.28C417.763 836.48 416.387 835.408 415.363 834.064C414.371 832.72 413.827 831.232 413.731 829.6H420.499C420.627 830.624 421.123 831.472 421.987 832.144C422.883 832.816 423.987 833.152 425.299 833.152C426.579 833.152 427.571 832.896 428.275 832.384C429.011 831.872 429.379 831.216 429.379 830.416C429.379 829.552 428.931 828.912 428.035 828.496C427.171 828.048 425.779 827.568 423.859 827.056C421.875 826.576 420.243 826.08 418.963 825.568C417.715 825.056 416.627 824.272 415.699 823.216C414.803 822.16 414.355 820.736 414.355 818.944C414.355 817.472 414.771 816.128 415.603 814.912C416.467 813.696 417.683 812.736 419.251 812.032C420.851 811.328 422.723 810.976 424.867 810.976C428.035 810.976 430.563 811.776 432.451 813.376C434.339 814.944 435.379 817.072 435.571 819.76H429.139C429.043 818.704 428.595 817.872 427.795 817.264C427.027 816.624 425.987 816.304 424.675 816.304C423.459 816.304 422.515 816.528 421.843 816.976C421.203 817.424 420.883 818.048 420.883 818.848C420.883 819.744 421.331 820.432 422.227 820.912C423.123 821.36 424.515 821.824 426.403 822.304C428.323 822.784 429.907 823.28 431.155 823.792C432.403 824.304 433.475 825.104 434.371 826.192C435.299 827.248 435.779 828.656 435.811 830.416C435.811 831.952 435.379 833.328 434.515 834.544C433.683 835.76 432.467 836.72 430.867 837.424C429.299 838.096 427.459 838.432 425.347 838.432Z" fill="white"/>
<rect x="566" y="788" width="64" height="64" rx="10" fill="#2F2F2F"/>
<path d="M607.6 829.6V817.6M598 829.6V810.4M588.4 829.6V824.8M583.6 839.2C580.949 839.2 578.8 837.051 578.8 834.4V805.6C578.8 802.949 580.949 800.8 583.6 800.8H612.4C615.051 800.8 617.2 802.949 617.2 805.6V834.4C617.2 837.051 615.051 839.2 612.4 839.2H583.6Z" stroke="#9FE96E" stroke-width="2" stroke-linecap="round" stroke-linejoin="round"/>
<rect x="646" y="788" width="64" height="64" rx="10" fill="black"/>
<path d="M673.2 839.2H682.8M666 812.8C666 806.173 671.373 800.8 678 800.8C684.627 800.8 690 806.173 690 812.8C690 817.721 687.038 821.748 682.8 823.6V830.8C682.8 832.125 681.725 833.2 680.4 833.2H675.6C674.275 833.2 673.2 832.125 673.2 830.8V823.801C668.962 821.95 666 817.721 666 812.8Z" stroke="#9FE96E" stroke-width="2" stroke-linecap="round" stroke-linejoin="round"/>
<rect x="726" y="788" width="64" height="64" rx="10" fill="black"/>
<path d="M774.875 821C775.427 821 775.875 820.552 775.875 820C775.875 819.448 775.427 819 774.875 819V821ZM775 820C775 829.389 767.389 837 758 837V839C768.493 839 777 830.493 777 820H775ZM758 837C748.611 837 741 829.389 741 820H739C739 830.493 747.507 839 758 839V837ZM741 820C741 810.611 748.611 803 758 803V801C747.507 801 739 809.507 739 820H741ZM758 803C767.389 803 775 810.611 775 820H777C777 809.507 768.493 801 758 801V803ZM758 837C757.244 837 756.444 836.654 755.63 835.867C754.811 835.075 754.027 833.88 753.348 832.327C751.99 829.224 751.125 824.866 751.125 820H749.125C749.125 825.075 750.023 829.718 751.515 833.129C752.261 834.833 753.174 836.275 754.24 837.304C755.31 838.339 756.582 839 758 839V837ZM751.125 820C751.125 815.134 751.99 810.776 753.348 807.673C754.027 806.12 754.811 804.925 755.63 804.133C756.444 803.346 757.244 803 758 803V801C756.582 801 755.31 801.661 754.24 802.696C753.174 803.725 752.261 805.167 751.515 806.871C750.023 810.282 749.125 814.925 749.125 820H751.125ZM758 839C759.418 839 760.69 838.339 761.76 837.304C762.826 836.275 763.739 834.833 764.485 833.129C765.977 829.718 766.875 825.075 766.875 820H764.875C764.875 824.866 764.01 829.224 762.652 832.327C761.973 833.88 761.189 835.075 760.37 835.867C759.556 836.654 758.756 837 758 837V839ZM766.875 820C766.875 814.925 765.977 810.282 764.485 806.871C763.739 805.167 762.826 803.725 761.76 802.696C760.69 801.661 759.418 801 758 801V803C758.756 803 759.556 803.346 760.37 804.133C761.189 804.925 761.973 806.12 762.652 807.673C764.01 810.776 764.875 815.134 764.875 820H766.875ZM740 821L774.875 821V819L740 819L740 821Z" fill="#9FE96E"/>
<g filter="url(#filter0_f_1_2)">
<ellipse cx="95.009" cy="80" rx="133.536" ry="116.148" transform="rotate(1.23556 95.009 80)" fill="url(#paint0_linear_1_2)"/>
</g>
<mask id="path-13-inside-1_1_2" fill="white">
<path fill-rule="evenodd" clip-rule="evenodd" d="M62 32C45.4315 32 32 45.4314 32 62V742C32 758.569 45.4315 772 62 772H817C836.882 772 853 788.118 853 808C853 827.882 869.118 844 889 844H1246C1265.88 844 1282 827.882 1282 808C1282 788.118 1298.12 772 1318 772H1538C1554.57 772 1568 758.569 1568 742V62C1568 45.4315 1554.57 32 1538 32H62Z"/>
</mask>
<path fill-rule="evenodd" clip-rule="evenodd" d="M62 32C45.4315 32 32 45.4314 32 62V742C32 758.569 45.4315 772 62 772H817C836.882 772 853 788.118 853 808C853 827.882 869.118 844 889 844H1246C1265.88 844 1282 827.882 1282 808C1282 788.118 1298.12 772 1318 772H1538C1554.57 772 1568 758.569 1568 742V62C1568 45.4315 1554.57 32 1538 32H62Z" fill="white"/>
<path d="M33 62C33 45.9837 45.9837 33 62 33V31C44.8792 31 31 44.8792 31 62H33ZM33 742V62H31V742H33ZM62 771C45.9837 771 33 758.016 33 742H31C31 759.121 44.8792 773 62 773V771ZM817 771H62V773H817V771ZM1246 843H889V845H1246V843ZM1538 771H1318V773H1538V771ZM1567 742C1567 758.016 1554.02 771 1538 771V773C1555.12 773 1569 759.121 1569 742H1567ZM1567 62V742H1569V62H1567ZM1538 33C1554.02 33 1567 45.9837 1567 62H1569C1569 44.8792 1555.12 31 1538 31V33ZM62 33H1538V31H62V33ZM1283 808C1283 788.67 1298.67 773 1318 773V771C1297.57 771 1281 787.565 1281 808H1283ZM1246 845C1266.43 845 1283 828.435 1283 808H1281C1281 827.33 1265.33 843 1246 843V845ZM852 808C852 828.435 868.565 845 889 845V843C869.67 843 854 827.33 854 808H852ZM817 773C836.33 773 852 788.67 852 808H854C854 787.565 837.435 771 817 771V773Z" fill="black" mask="url(#path-13-inside-1_1_2)"/>
<rect x="1076.5" y="434.5" width="468" height="321" rx="29.5" fill="#2F2F2F" stroke="black"/>
<rect x="1076.5" y="80.5" width="468" height="321" rx="29.5" fill="#2F2F2F" stroke="black"/>
<rect x="1068.5" y="64.5" width="468" height="321" rx="29.5" fill="black" stroke="black"/>
<path d="M1093.11 92.664V115H1088.63V92.664H1093.11ZM1102.75 100.952V109.528C1102.75 110.125 1102.89 110.563 1103.17 110.84C1103.47 111.096 1103.96 111.224 1104.64 111.224H1106.72V115H1103.9C1100.13 115 1098.24 113.165 1098.24 109.496V100.952H1096.13V97.272H1098.24V92.888H1102.75V97.272H1106.72V100.952H1102.75ZM1126.42 105.752C1126.42 106.392 1126.38 106.968 1126.29 107.48H1113.33C1113.44 108.76 1113.89 109.763 1114.68 110.488C1115.47 111.213 1116.44 111.576 1117.59 111.576C1119.25 111.576 1120.44 110.861 1121.14 109.432H1125.97C1125.46 111.139 1124.48 112.547 1123.03 113.656C1121.58 114.744 1119.8 115.288 1117.69 115.288C1115.98 115.288 1114.44 114.915 1113.08 114.168C1111.73 113.4 1110.68 112.323 1109.91 110.936C1109.16 109.549 1108.79 107.949 1108.79 106.136C1108.79 104.301 1109.16 102.691 1109.91 101.304C1110.66 99.9173 1111.7 98.8507 1113.05 98.104C1114.39 97.3573 1115.94 96.984 1117.69 96.984C1119.37 96.984 1120.88 97.3467 1122.2 98.072C1123.54 98.7973 1124.58 99.832 1125.3 101.176C1126.05 102.499 1126.42 104.024 1126.42 105.752ZM1121.78 104.472C1121.76 103.32 1121.34 102.403 1120.53 101.72C1119.72 101.016 1118.73 100.664 1117.56 100.664C1116.45 100.664 1115.51 101.005 1114.74 101.688C1114 102.349 1113.54 103.277 1113.37 104.472H1121.78ZM1151.71 97.016C1153.88 97.016 1155.63 97.688 1156.96 99.032C1158.3 100.355 1158.97 102.211 1158.97 104.6V115H1154.49V105.208C1154.49 103.821 1154.14 102.765 1153.44 102.04C1152.73 101.293 1151.77 100.92 1150.56 100.92C1149.34 100.92 1148.37 101.293 1147.64 102.04C1146.94 102.765 1146.59 103.821 1146.59 105.208V115H1142.11V105.208C1142.11 103.821 1141.76 102.765 1141.05 102.04C1140.35 101.293 1139.39 100.92 1138.17 100.92C1136.93 100.92 1135.95 101.293 1135.23 102.04C1134.52 102.765 1134.17 103.821 1134.17 105.208V115H1129.69V97.272H1134.17V99.416C1134.75 98.6693 1135.48 98.0827 1136.38 97.656C1137.3 97.2293 1138.3 97.016 1139.39 97.016C1140.77 97.016 1142.01 97.3147 1143.1 97.912C1144.19 98.488 1145.03 99.32 1145.63 100.408C1146.2 99.384 1147.04 98.5627 1148.12 97.944C1149.23 97.3253 1150.43 97.016 1151.71 97.016ZM1170.01 115.288C1168.56 115.288 1167.26 115.032 1166.1 114.52C1164.95 113.987 1164.03 113.272 1163.35 112.376C1162.69 111.48 1162.33 110.488 1162.26 109.4H1166.78C1166.86 110.083 1167.19 110.648 1167.77 111.096C1168.36 111.544 1169.1 111.768 1169.98 111.768C1170.83 111.768 1171.49 111.597 1171.96 111.256C1172.45 110.915 1172.7 110.477 1172.7 109.944C1172.7 109.368 1172.4 108.941 1171.8 108.664C1171.22 108.365 1170.3 108.045 1169.02 107.704C1167.69 107.384 1166.6 107.053 1165.75 106.712C1164.92 106.371 1164.19 105.848 1163.58 105.144C1162.98 104.44 1162.68 103.491 1162.68 102.296C1162.68 101.315 1162.96 100.419 1163.51 99.608C1164.09 98.7973 1164.9 98.1573 1165.94 97.688C1167.01 97.2187 1168.26 96.984 1169.69 96.984C1171.8 96.984 1173.48 97.5173 1174.74 98.584C1176 99.6293 1176.7 101.048 1176.82 102.84H1172.54C1172.47 102.136 1172.17 101.581 1171.64 101.176C1171.13 100.749 1170.43 100.536 1169.56 100.536C1168.75 100.536 1168.12 100.685 1167.67 100.984C1167.24 101.283 1167.03 101.699 1167.03 102.232C1167.03 102.829 1167.33 103.288 1167.93 103.608C1168.52 103.907 1169.45 104.216 1170.71 104.536C1171.99 104.856 1173.05 105.187 1173.88 105.528C1174.71 105.869 1175.43 106.403 1176.02 107.128C1176.64 107.832 1176.96 108.771 1176.98 109.944C1176.98 110.968 1176.7 111.885 1176.12 112.696C1175.56 113.507 1174.75 114.147 1173.69 114.616C1172.64 115.064 1171.42 115.288 1170.01 115.288ZM1196 115.224C1194.44 115.224 1193.03 114.957 1191.77 114.424C1190.54 113.891 1189.56 113.123 1188.83 112.12C1188.1 111.117 1187.73 109.933 1187.71 108.568H1192.51C1192.57 109.485 1192.89 110.211 1193.47 110.744C1194.07 111.277 1194.88 111.544 1195.9 111.544C1196.95 111.544 1197.77 111.299 1198.37 110.808C1198.96 110.296 1199.26 109.635 1199.26 108.824C1199.26 108.163 1199.06 107.619 1198.65 107.192C1198.25 106.765 1197.74 106.435 1197.12 106.2C1196.52 105.944 1195.69 105.667 1194.62 105.368C1193.17 104.941 1191.99 104.525 1191.07 104.12C1190.17 103.693 1189.4 103.064 1188.73 102.232C1188.09 101.379 1187.77 100.248 1187.77 98.84C1187.77 97.5173 1188.1 96.3653 1188.77 95.384C1189.43 94.4027 1190.36 93.656 1191.55 93.144C1192.74 92.6107 1194.11 92.344 1195.65 92.344C1197.95 92.344 1199.82 92.9093 1201.25 94.04C1202.7 95.1493 1203.5 96.7067 1203.65 98.712H1198.72C1198.68 97.944 1198.34 97.3147 1197.73 96.824C1197.13 96.312 1196.33 96.056 1195.33 96.056C1194.45 96.056 1193.75 96.28 1193.21 96.728C1192.7 97.176 1192.45 97.8267 1192.45 98.68C1192.45 99.2773 1192.64 99.7787 1193.02 100.184C1193.43 100.568 1193.92 100.888 1194.49 101.144C1195.09 101.379 1195.92 101.656 1196.99 101.976C1198.44 102.403 1199.62 102.829 1200.54 103.256C1201.46 103.683 1202.25 104.323 1202.91 105.176C1203.57 106.029 1203.9 107.149 1203.9 108.536C1203.9 109.731 1203.59 110.84 1202.97 111.864C1202.36 112.888 1201.45 113.709 1200.25 114.328C1199.06 114.925 1197.64 115.224 1196 115.224ZM1215.66 115.288C1213.95 115.288 1212.42 114.915 1211.05 114.168C1209.68 113.4 1208.61 112.323 1207.82 110.936C1207.05 109.549 1206.67 107.949 1206.67 106.136C1206.67 104.323 1207.06 102.723 1207.85 101.336C1208.66 99.9493 1209.76 98.8827 1211.15 98.136C1212.53 97.368 1214.08 96.984 1215.79 96.984C1217.49 96.984 1219.04 97.368 1220.43 98.136C1221.81 98.8827 1222.9 99.9493 1223.69 101.336C1224.5 102.723 1224.91 104.323 1224.91 106.136C1224.91 107.949 1224.49 109.549 1223.66 110.936C1222.85 112.323 1221.74 113.4 1220.33 114.168C1218.94 114.915 1217.39 115.288 1215.66 115.288ZM1215.66 111.384C1216.47 111.384 1217.23 111.192 1217.93 110.808C1218.66 110.403 1219.23 109.805 1219.66 109.016C1220.08 108.227 1220.3 107.267 1220.3 106.136C1220.3 104.451 1219.85 103.16 1218.95 102.264C1218.08 101.347 1217 100.888 1215.72 100.888C1214.44 100.888 1213.36 101.347 1212.49 102.264C1211.64 103.16 1211.21 104.451 1211.21 106.136C1211.21 107.821 1211.63 109.123 1212.46 110.04C1213.31 110.936 1214.38 111.384 1215.66 111.384ZM1232.67 91.32V115H1228.19V91.32H1232.67ZM1235.95 106.072C1235.95 104.28 1236.3 102.691 1237 101.304C1237.73 99.9173 1238.71 98.8507 1239.95 98.104C1241.18 97.3573 1242.56 96.984 1244.07 96.984C1245.23 96.984 1246.33 97.24 1247.37 97.752C1248.42 98.2427 1249.25 98.904 1249.87 99.736V91.32H1254.41V115H1249.87V112.376C1249.31 113.251 1248.53 113.955 1247.53 114.488C1246.53 115.021 1245.37 115.288 1244.04 115.288C1242.55 115.288 1241.18 114.904 1239.95 114.136C1238.71 113.368 1237.73 112.291 1237 110.904C1236.3 109.496 1235.95 107.885 1235.95 106.072ZM1249.9 106.136C1249.9 105.048 1249.69 104.12 1249.26 103.352C1248.83 102.563 1248.26 101.965 1247.53 101.56C1246.81 101.133 1246.03 100.92 1245.19 100.92C1244.36 100.92 1243.59 101.123 1242.89 101.528C1242.19 101.933 1241.61 102.531 1241.16 103.32C1240.74 104.088 1240.52 105.005 1240.52 106.072C1240.52 107.139 1240.74 108.077 1241.16 108.888C1241.61 109.677 1242.19 110.285 1242.89 110.712C1243.62 111.139 1244.38 111.352 1245.19 111.352C1246.03 111.352 1246.81 111.149 1247.53 110.744C1248.26 110.317 1248.83 109.72 1249.26 108.952C1249.69 108.163 1249.9 107.224 1249.9 106.136Z" fill="white"/>
<path d="M1487.67 90L1514.33 90M1496.83 100L1514.33 100M1487.67 110L1514.33 110" stroke="white" stroke-width="2" stroke-linecap="round"/>
<rect x="1068.5" y="418.5" width="468" height="321" rx="29.5" fill="black" stroke="black"/>
<path d="M1100.06 464.744H1091.16L1089.69 469H1084.99L1093.02 446.632H1098.24L1106.27 469H1101.53L1100.06 464.744ZM1098.84 461.16L1095.61 451.816L1092.38 461.16H1098.84ZM1116.66 464.872L1121.14 451.272H1125.91L1119.35 469H1113.91L1107.38 451.272H1112.18L1116.66 464.872ZM1135.37 450.984C1136.69 450.984 1137.86 451.251 1138.86 451.784C1139.86 452.296 1140.65 452.968 1141.23 453.8V451.272H1145.74V469.128C1145.74 470.771 1145.41 472.232 1144.75 473.512C1144.09 474.813 1143.09 475.837 1141.77 476.584C1140.45 477.352 1138.85 477.736 1136.97 477.736C1134.45 477.736 1132.38 477.149 1130.76 475.976C1129.16 474.803 1128.26 473.203 1128.04 471.176H1132.49C1132.73 471.987 1133.23 472.627 1133.99 473.096C1134.78 473.587 1135.73 473.832 1136.84 473.832C1138.14 473.832 1139.2 473.437 1140.01 472.648C1140.82 471.88 1141.23 470.707 1141.23 469.128V466.376C1140.65 467.208 1139.85 467.901 1138.83 468.456C1137.82 469.011 1136.67 469.288 1135.37 469.288C1133.88 469.288 1132.51 468.904 1131.27 468.136C1130.04 467.368 1129.06 466.291 1128.33 464.904C1127.63 463.496 1127.27 461.885 1127.27 460.072C1127.27 458.28 1127.63 456.691 1128.33 455.304C1129.06 453.917 1130.03 452.851 1131.24 452.104C1132.48 451.357 1133.86 450.984 1135.37 450.984ZM1141.23 460.136C1141.23 459.048 1141.01 458.12 1140.59 457.352C1140.16 456.563 1139.58 455.965 1138.86 455.56C1138.13 455.133 1137.35 454.92 1136.52 454.92C1135.69 454.92 1134.92 455.123 1134.22 455.528C1133.51 455.933 1132.94 456.531 1132.49 457.32C1132.06 458.088 1131.85 459.005 1131.85 460.072C1131.85 461.139 1132.06 462.077 1132.49 462.888C1132.94 463.677 1133.51 464.285 1134.22 464.712C1134.94 465.139 1135.71 465.352 1136.52 465.352C1137.35 465.352 1138.13 465.149 1138.86 464.744C1139.58 464.317 1140.16 463.72 1140.59 462.952C1141.01 462.163 1141.23 461.224 1141.23 460.136ZM1165.45 469.224C1163.89 469.224 1162.49 468.957 1161.23 468.424C1159.99 467.891 1159.01 467.123 1158.28 466.12C1157.56 465.117 1157.18 463.933 1157.16 462.568H1161.96C1162.03 463.485 1162.35 464.211 1162.92 464.744C1163.52 465.277 1164.33 465.544 1165.36 465.544C1166.4 465.544 1167.22 465.299 1167.82 464.808C1168.42 464.296 1168.72 463.635 1168.72 462.824C1168.72 462.163 1168.51 461.619 1168.11 461.192C1167.7 460.765 1167.19 460.435 1166.57 460.2C1165.97 459.944 1165.14 459.667 1164.08 459.368C1162.62 458.941 1161.44 458.525 1160.52 458.12C1159.63 457.693 1158.85 457.064 1158.19 456.232C1157.55 455.379 1157.23 454.248 1157.23 452.84C1157.23 451.517 1157.56 450.365 1158.22 449.384C1158.88 448.403 1159.81 447.656 1161 447.144C1162.2 446.611 1163.56 446.344 1165.1 446.344C1167.4 446.344 1169.27 446.909 1170.7 448.04C1172.15 449.149 1172.95 450.707 1173.1 452.712H1168.17C1168.13 451.944 1167.8 451.315 1167.18 450.824C1166.58 450.312 1165.78 450.056 1164.78 450.056C1163.9 450.056 1163.2 450.28 1162.67 450.728C1162.16 451.176 1161.9 451.827 1161.9 452.68C1161.9 453.277 1162.09 453.779 1162.48 454.184C1162.88 454.568 1163.37 454.888 1163.95 455.144C1164.54 455.379 1165.38 455.656 1166.44 455.976C1167.89 456.403 1169.08 456.829 1170 457.256C1170.91 457.683 1171.7 458.323 1172.36 459.176C1173.02 460.029 1173.36 461.149 1173.36 462.536C1173.36 463.731 1173.05 464.84 1172.43 465.864C1171.81 466.888 1170.9 467.709 1169.71 468.328C1168.51 468.925 1167.09 469.224 1165.45 469.224ZM1187.22 451.016C1188.57 451.016 1189.76 451.315 1190.81 451.912C1191.85 452.488 1192.66 453.352 1193.24 454.504C1193.84 455.635 1194.14 457 1194.14 458.6V469H1189.66V459.208C1189.66 457.8 1189.3 456.723 1188.6 455.976C1187.9 455.208 1186.94 454.824 1185.72 454.824C1184.48 454.824 1183.5 455.208 1182.78 455.976C1182.07 456.723 1181.72 457.8 1181.72 459.208V469H1177.24V445.32H1181.72V453.48C1182.3 452.712 1183.06 452.115 1184.02 451.688C1184.98 451.24 1186.05 451.016 1187.22 451.016ZM1200.67 449.16C1199.88 449.16 1199.22 448.915 1198.68 448.424C1198.17 447.912 1197.92 447.283 1197.92 446.536C1197.92 445.789 1198.17 445.171 1198.68 444.68C1199.22 444.168 1199.88 443.912 1200.67 443.912C1201.46 443.912 1202.11 444.168 1202.62 444.68C1203.15 445.171 1203.42 445.789 1203.42 446.536C1203.42 447.283 1203.15 447.912 1202.62 448.424C1202.11 448.915 1201.46 449.16 1200.67 449.16ZM1202.88 451.272V469H1198.4V451.272H1202.88ZM1211.78 453.832C1212.36 453.021 1213.15 452.349 1214.15 451.816C1215.17 451.261 1216.34 450.984 1217.64 450.984C1219.15 450.984 1220.52 451.357 1221.73 452.104C1222.97 452.851 1223.94 453.917 1224.65 455.304C1225.37 456.669 1225.73 458.259 1225.73 460.072C1225.73 461.885 1225.37 463.496 1224.65 464.904C1223.94 466.291 1222.97 467.368 1221.73 468.136C1220.52 468.904 1219.15 469.288 1217.64 469.288C1216.34 469.288 1215.18 469.021 1214.18 468.488C1213.2 467.955 1212.4 467.283 1211.78 466.472V477.448H1207.3V451.272H1211.78V453.832ZM1221.16 460.072C1221.16 459.005 1220.93 458.088 1220.49 457.32C1220.06 456.531 1219.48 455.933 1218.76 455.528C1218.05 455.123 1217.29 454.92 1216.45 454.92C1215.64 454.92 1214.88 455.133 1214.15 455.56C1213.45 455.965 1212.87 456.563 1212.42 457.352C1212 458.141 1211.78 459.069 1211.78 460.136C1211.78 461.203 1212 462.131 1212.42 462.92C1212.87 463.709 1213.45 464.317 1214.15 464.744C1214.88 465.149 1215.64 465.352 1216.45 465.352C1217.29 465.352 1218.05 465.139 1218.76 464.712C1219.48 464.285 1220.06 463.677 1220.49 462.888C1220.93 462.099 1221.16 461.16 1221.16 460.072ZM1244.42 446.664C1246.77 446.664 1248.83 447.123 1250.6 448.04C1252.39 448.957 1253.77 450.269 1254.73 451.976C1255.71 453.661 1256.2 455.624 1256.2 457.864C1256.2 460.104 1255.71 462.067 1254.73 463.752C1253.77 465.416 1252.39 466.707 1250.6 467.624C1248.83 468.541 1246.77 469 1244.42 469H1236.61V446.664H1244.42ZM1244.26 465.192C1246.61 465.192 1248.42 464.552 1249.7 463.272C1250.98 461.992 1251.62 460.189 1251.62 457.864C1251.62 455.539 1250.98 453.725 1249.7 452.424C1248.42 451.101 1246.61 450.44 1244.26 450.44H1241.09V465.192H1244.26ZM1258.4 460.072C1258.4 458.28 1258.75 456.691 1259.46 455.304C1260.18 453.917 1261.15 452.851 1262.37 452.104C1263.61 451.357 1264.98 450.984 1266.5 450.984C1267.82 450.984 1268.97 451.251 1269.95 451.784C1270.95 452.317 1271.75 452.989 1272.35 453.8V451.272H1276.86V469H1272.35V466.408C1271.78 467.24 1270.98 467.933 1269.95 468.488C1268.95 469.021 1267.79 469.288 1266.46 469.288C1264.97 469.288 1263.61 468.904 1262.37 468.136C1261.15 467.368 1260.18 466.291 1259.46 464.904C1258.75 463.496 1258.4 461.885 1258.4 460.072ZM1272.35 460.136C1272.35 459.048 1272.14 458.12 1271.71 457.352C1271.29 456.563 1270.71 455.965 1269.98 455.56C1269.26 455.133 1268.48 454.92 1267.65 454.92C1266.82 454.92 1266.05 455.123 1265.34 455.528C1264.64 455.933 1264.06 456.531 1263.62 457.32C1263.19 458.088 1262.98 459.005 1262.98 460.072C1262.98 461.139 1263.19 462.077 1263.62 462.888C1264.06 463.677 1264.64 464.285 1265.34 464.712C1266.07 465.139 1266.84 465.352 1267.65 465.352C1268.48 465.352 1269.26 465.149 1269.98 464.744C1270.71 464.317 1271.29 463.72 1271.71 462.952C1272.14 462.163 1272.35 461.224 1272.35 460.136ZM1298.2 451.272L1287.22 477.384H1282.46L1286.3 468.552L1279.19 451.272H1284.22L1288.79 463.656L1293.43 451.272H1298.2ZM1307.4 469.288C1305.95 469.288 1304.65 469.032 1303.49 468.52C1302.34 467.987 1301.42 467.272 1300.74 466.376C1300.08 465.48 1299.72 464.488 1299.65 463.4H1304.17C1304.25 464.083 1304.58 464.648 1305.16 465.096C1305.76 465.544 1306.49 465.768 1307.37 465.768C1308.22 465.768 1308.88 465.597 1309.35 465.256C1309.84 464.915 1310.09 464.477 1310.09 463.944C1310.09 463.368 1309.79 462.941 1309.19 462.664C1308.61 462.365 1307.69 462.045 1306.41 461.704C1305.08 461.384 1304 461.053 1303.14 460.712C1302.31 460.371 1301.58 459.848 1300.97 459.144C1300.37 458.44 1300.07 457.491 1300.07 456.296C1300.07 455.315 1300.35 454.419 1300.9 453.608C1301.48 452.797 1302.29 452.157 1303.33 451.688C1304.4 451.219 1305.65 450.984 1307.08 450.984C1309.19 450.984 1310.88 451.517 1312.13 452.584C1313.39 453.629 1314.09 455.048 1314.21 456.84H1309.93C1309.86 456.136 1309.56 455.581 1309.03 455.176C1308.52 454.749 1307.82 454.536 1306.95 454.536C1306.14 454.536 1305.51 454.685 1305.06 454.984C1304.64 455.283 1304.42 455.699 1304.42 456.232C1304.42 456.829 1304.72 457.288 1305.32 457.608C1305.92 457.907 1306.84 458.216 1308.1 458.536C1309.38 458.856 1310.44 459.187 1311.27 459.528C1312.1 459.869 1312.82 460.403 1313.41 461.128C1314.03 461.832 1314.35 462.771 1314.37 463.944C1314.37 464.968 1314.09 465.885 1313.51 466.696C1312.96 467.507 1312.14 468.147 1311.08 468.616C1310.03 469.064 1308.81 469.288 1307.4 469.288Z" fill="white"/>
<path d="M1487.67 444L1514.33 444M1496.83 454L1514.33 454M1487.67 464L1514.33 464" stroke="white" stroke-width="2" stroke-linecap="round"/>
<rect x="574.5" y="434.5" width="468" height="321" rx="29.5" fill="#2F2F2F" stroke="black"/>
<rect x="574.5" y="80.5" width="468" height="321" rx="29.5" fill="#2F2F2F" stroke="black"/>
<rect x="566.5" y="64.5" width="468" height="321" rx="29.5" fill="#A4A7F6" stroke="black"/>
<path d="M602.418 99.576C602.418 100.771 602.13 101.891 601.554 102.936C600.999 103.981 600.114 104.824 598.898 105.464C597.703 106.104 596.189 106.424 594.354 106.424H590.61V115H586.13V92.664H594.354C596.082 92.664 597.554 92.9627 598.77 93.56C599.986 94.1573 600.893 94.9787 601.49 96.024C602.109 97.0693 602.418 98.2533 602.418 99.576ZM594.162 102.808C595.399 102.808 596.317 102.531 596.914 101.976C597.511 101.4 597.81 100.6 597.81 99.576C597.81 97.4 596.594 96.312 594.162 96.312H590.61V102.808H594.162ZM610.079 100.024C610.655 99.0853 611.401 98.3493 612.319 97.816C613.257 97.2827 614.324 97.016 615.519 97.016V101.72H614.335C612.927 101.72 611.86 102.051 611.135 102.712C610.431 103.373 610.079 104.525 610.079 106.168V115H605.599V97.272H610.079V100.024ZM626.408 115.288C624.701 115.288 623.165 114.915 621.8 114.168C620.435 113.4 619.357 112.323 618.568 110.936C617.8 109.549 617.416 107.949 617.416 106.136C617.416 104.323 617.811 102.723 618.6 101.336C619.411 99.9493 620.509 98.8827 621.896 98.136C623.283 97.368 624.829 96.984 626.536 96.984C628.243 96.984 629.789 97.368 631.176 98.136C632.563 98.8827 633.651 99.9493 634.44 101.336C635.251 102.723 635.656 104.323 635.656 106.136C635.656 107.949 635.24 109.549 634.408 110.936C633.597 112.323 632.488 113.4 631.08 114.168C629.693 114.915 628.136 115.288 626.408 115.288ZM626.408 111.384C627.219 111.384 627.976 111.192 628.68 110.808C629.405 110.403 629.981 109.805 630.408 109.016C630.835 108.227 631.048 107.267 631.048 106.136C631.048 104.451 630.6 103.16 629.704 102.264C628.829 101.347 627.752 100.888 626.472 100.888C625.192 100.888 624.115 101.347 623.24 102.264C622.387 103.16 621.96 104.451 621.96 106.136C621.96 107.821 622.376 109.123 623.208 110.04C624.061 110.936 625.128 111.384 626.408 111.384ZM647.07 100.952H643.966V115H639.422V100.952H637.406V97.272H639.422V96.376C639.422 94.2 640.041 92.6 641.278 91.576C642.516 90.552 644.382 90.072 646.878 90.136V93.912C645.79 93.8907 645.033 94.072 644.606 94.456C644.18 94.84 643.966 95.5333 643.966 96.536V97.272H647.07V100.952ZM652.246 95.16C651.456 95.16 650.795 94.9147 650.262 94.424C649.75 93.912 649.494 93.2827 649.494 92.536C649.494 91.7893 649.75 91.1707 650.262 90.68C650.795 90.168 651.456 89.912 652.246 89.912C653.035 89.912 653.686 90.168 654.198 90.68C654.731 91.1707 654.998 91.7893 654.998 92.536C654.998 93.2827 654.731 93.912 654.198 94.424C653.686 94.9147 653.035 95.16 652.246 95.16ZM654.454 97.272V115H649.974V97.272H654.454ZM664.096 100.952V109.528C664.096 110.125 664.235 110.563 664.512 110.84C664.811 111.096 665.301 111.224 665.984 111.224H668.064V115H665.248C661.472 115 659.584 113.165 659.584 109.496V100.952H657.472V97.272H659.584V92.888H664.096V97.272H668.064V100.952H664.096Z" fill="black"/>
<path d="M985.667 90L1012.33 90M994.833 100L1012.33 100M985.667 110L1012.33 110" stroke="black" stroke-width="2" stroke-linecap="round"/>
<rect x="566.5" y="418.5" width="468" height="321" rx="29.5" fill="#A4A7F6" stroke="black"/>
<path d="M600.887 453.576C600.887 454.771 600.599 455.891 600.023 456.936C599.468 457.981 598.583 458.824 597.367 459.464C596.172 460.104 594.657 460.424 592.823 460.424H589.079V469H584.599V446.664H592.823C594.551 446.664 596.023 446.963 597.239 447.56C598.455 448.157 599.361 448.979 599.959 450.024C600.577 451.069 600.887 452.253 600.887 453.576ZM592.631 456.808C593.868 456.808 594.785 456.531 595.383 455.976C595.98 455.4 596.279 454.6 596.279 453.576C596.279 451.4 595.063 450.312 592.631 450.312H589.079V456.808H592.631ZM608.547 454.024C609.123 453.085 609.87 452.349 610.787 451.816C611.726 451.283 612.793 451.016 613.987 451.016V455.72H612.803C611.395 455.72 610.329 456.051 609.603 456.712C608.899 457.373 608.547 458.525 608.547 460.168V469H604.067V451.272H608.547V454.024ZM624.877 469.288C623.17 469.288 621.634 468.915 620.269 468.168C618.904 467.4 617.826 466.323 617.037 464.936C616.269 463.549 615.885 461.949 615.885 460.136C615.885 458.323 616.28 456.723 617.069 455.336C617.88 453.949 618.978 452.883 620.365 452.136C621.752 451.368 623.298 450.984 625.005 450.984C626.712 450.984 628.258 451.368 629.645 452.136C631.032 452.883 632.12 453.949 632.909 455.336C633.72 456.723 634.125 458.323 634.125 460.136C634.125 461.949 633.709 463.549 632.877 464.936C632.066 466.323 630.957 467.4 629.549 468.168C628.162 468.915 626.605 469.288 624.877 469.288ZM624.877 465.384C625.688 465.384 626.445 465.192 627.149 464.808C627.874 464.403 628.45 463.805 628.877 463.016C629.304 462.227 629.517 461.267 629.517 460.136C629.517 458.451 629.069 457.16 628.173 456.264C627.298 455.347 626.221 454.888 624.941 454.888C623.661 454.888 622.584 455.347 621.709 456.264C620.856 457.16 620.429 458.451 620.429 460.136C620.429 461.821 620.845 463.123 621.677 464.04C622.53 464.936 623.597 465.384 624.877 465.384ZM645.539 454.952H642.435V469H637.891V454.952H635.875V451.272H637.891V450.376C637.891 448.2 638.51 446.6 639.747 445.576C640.984 444.552 642.851 444.072 645.347 444.136V447.912C644.259 447.891 643.502 448.072 643.075 448.456C642.648 448.84 642.435 449.533 642.435 450.536V451.272H645.539V454.952ZM650.714 449.16C649.925 449.16 649.264 448.915 648.73 448.424C648.218 447.912 647.962 447.283 647.962 446.536C647.962 445.789 648.218 445.171 648.73 444.68C649.264 444.168 649.925 443.912 650.714 443.912C651.504 443.912 652.154 444.168 652.666 444.68C653.2 445.171 653.466 445.789 653.466 446.536C653.466 447.283 653.2 447.912 652.666 448.424C652.154 448.915 651.504 449.16 650.714 449.16ZM652.922 451.272V469H648.442V451.272H652.922ZM662.565 454.952V463.528C662.565 464.125 662.703 464.563 662.981 464.84C663.279 465.096 663.77 465.224 664.453 465.224H666.533V469H663.717C659.941 469 658.053 467.165 658.053 463.496V454.952H655.941V451.272H658.053V446.888H662.565V451.272H666.533V454.952H662.565ZM681.86 453.832C682.436 453.021 683.225 452.349 684.228 451.816C685.252 451.261 686.415 450.984 687.716 450.984C689.231 450.984 690.596 451.357 691.812 452.104C693.049 452.851 694.02 453.917 694.724 455.304C695.449 456.669 695.812 458.259 695.812 460.072C695.812 461.885 695.449 463.496 694.724 464.904C694.02 466.291 693.049 467.368 691.812 468.136C690.596 468.904 689.231 469.288 687.716 469.288C686.415 469.288 685.263 469.021 684.26 468.488C683.279 467.955 682.479 467.283 681.86 466.472V477.448H677.38V451.272H681.86V453.832ZM691.236 460.072C691.236 459.005 691.012 458.088 690.564 457.32C690.137 456.531 689.561 455.933 688.836 455.528C688.132 455.123 687.364 454.92 686.532 454.92C685.721 454.92 684.953 455.133 684.228 455.56C683.524 455.965 682.948 456.563 682.5 457.352C682.073 458.141 681.86 459.069 681.86 460.136C681.86 461.203 682.073 462.131 682.5 462.92C682.948 463.709 683.524 464.317 684.228 464.744C684.953 465.149 685.721 465.352 686.532 465.352C687.364 465.352 688.132 465.139 688.836 464.712C689.561 464.285 690.137 463.677 690.564 462.888C691.012 462.099 691.236 461.16 691.236 460.072ZM715.547 459.752C715.547 460.392 715.505 460.968 715.419 461.48H702.459C702.566 462.76 703.014 463.763 703.803 464.488C704.593 465.213 705.563 465.576 706.715 465.576C708.379 465.576 709.563 464.861 710.267 463.432H715.099C714.587 465.139 713.606 466.547 712.155 467.656C710.705 468.744 708.923 469.288 706.811 469.288C705.105 469.288 703.569 468.915 702.203 468.168C700.859 467.4 699.803 466.323 699.035 464.936C698.289 463.549 697.915 461.949 697.915 460.136C697.915 458.301 698.289 456.691 699.035 455.304C699.782 453.917 700.827 452.851 702.171 452.104C703.515 451.357 705.062 450.984 706.811 450.984C708.497 450.984 710.001 451.347 711.323 452.072C712.667 452.797 713.702 453.832 714.427 455.176C715.174 456.499 715.547 458.024 715.547 459.752ZM710.907 458.472C710.886 457.32 710.47 456.403 709.659 455.72C708.849 455.016 707.857 454.664 706.683 454.664C705.574 454.664 704.635 455.005 703.867 455.688C703.121 456.349 702.662 457.277 702.491 458.472H710.907ZM723.297 454.024C723.873 453.085 724.62 452.349 725.537 451.816C726.476 451.283 727.543 451.016 728.737 451.016V455.72H727.553C726.145 455.72 725.079 456.051 724.353 456.712C723.649 457.373 723.297 458.525 723.297 460.168V469H718.817V451.272H723.297V454.024ZM749.748 469.224C747.657 469.224 745.737 468.733 743.988 467.752C742.239 466.771 740.852 465.416 739.828 463.688C738.804 461.939 738.292 459.965 738.292 457.768C738.292 455.592 738.804 453.64 739.828 451.912C740.852 450.163 742.239 448.797 743.988 447.816C745.737 446.835 747.657 446.344 749.748 446.344C751.86 446.344 753.78 446.835 755.508 447.816C757.257 448.797 758.633 450.163 759.636 451.912C760.66 453.64 761.172 455.592 761.172 457.768C761.172 459.965 760.66 461.939 759.636 463.688C758.633 465.416 757.257 466.771 755.508 467.752C753.759 468.733 751.839 469.224 749.748 469.224ZM749.748 465.224C751.092 465.224 752.276 464.925 753.3 464.328C754.324 463.709 755.124 462.835 755.7 461.704C756.276 460.573 756.564 459.261 756.564 457.768C756.564 456.275 756.276 454.973 755.7 453.864C755.124 452.733 754.324 451.869 753.3 451.272C752.276 450.675 751.092 450.376 749.748 450.376C748.404 450.376 747.209 450.675 746.164 451.272C745.14 451.869 744.34 452.733 743.764 453.864C743.188 454.973 742.9 456.275 742.9 457.768C742.9 459.261 743.188 460.573 743.764 461.704C744.34 462.835 745.14 463.709 746.164 464.328C747.209 464.925 748.404 465.224 749.748 465.224ZM768.985 454.024C769.561 453.085 770.308 452.349 771.225 451.816C772.164 451.283 773.23 451.016 774.425 451.016V455.72H773.241C771.833 455.72 770.766 456.051 770.041 456.712C769.337 457.373 768.985 458.525 768.985 460.168V469H764.505V451.272H768.985V454.024ZM776.29 460.072C776.29 458.28 776.642 456.691 777.346 455.304C778.072 453.917 779.053 452.851 780.29 452.104C781.528 451.357 782.904 450.984 784.418 450.984C785.57 450.984 786.669 451.24 787.714 451.752C788.76 452.243 789.592 452.904 790.21 453.736V445.32H794.754V469H790.21V466.376C789.656 467.251 788.877 467.955 787.874 468.488C786.872 469.021 785.709 469.288 784.386 469.288C782.893 469.288 781.528 468.904 780.29 468.136C779.053 467.368 778.072 466.291 777.346 464.904C776.642 463.496 776.29 461.885 776.29 460.072ZM790.242 460.136C790.242 459.048 790.029 458.12 789.602 457.352C789.176 456.563 788.6 455.965 787.874 455.56C787.149 455.133 786.37 454.92 785.538 454.92C784.706 454.92 783.938 455.123 783.234 455.528C782.53 455.933 781.954 456.531 781.506 457.32C781.08 458.088 780.866 459.005 780.866 460.072C780.866 461.139 781.08 462.077 781.506 462.888C781.954 463.677 782.53 464.285 783.234 464.712C783.96 465.139 784.728 465.352 785.538 465.352C786.37 465.352 787.149 465.149 787.874 464.744C788.6 464.317 789.176 463.72 789.602 462.952C790.029 462.163 790.242 461.224 790.242 460.136ZM815.61 459.752C815.61 460.392 815.567 460.968 815.482 461.48H802.522C802.629 462.76 803.077 463.763 803.866 464.488C804.655 465.213 805.626 465.576 806.778 465.576C808.442 465.576 809.626 464.861 810.33 463.432H815.162C814.65 465.139 813.669 466.547 812.218 467.656C810.767 468.744 808.986 469.288 806.874 469.288C805.167 469.288 803.631 468.915 802.266 468.168C800.922 467.4 799.866 466.323 799.098 464.936C798.351 463.549 797.978 461.949 797.978 460.136C797.978 458.301 798.351 456.691 799.098 455.304C799.845 453.917 800.89 452.851 802.234 452.104C803.578 451.357 805.125 450.984 806.874 450.984C808.559 450.984 810.063 451.347 811.386 452.072C812.73 452.797 813.765 453.832 814.49 455.176C815.237 456.499 815.61 458.024 815.61 459.752ZM810.97 458.472C810.949 457.32 810.533 456.403 809.722 455.72C808.911 455.016 807.919 454.664 806.746 454.664C805.637 454.664 804.698 455.005 803.93 455.688C803.183 456.349 802.725 457.277 802.554 458.472H810.97ZM823.36 454.024C823.936 453.085 824.683 452.349 825.6 451.816C826.539 451.283 827.605 451.016 828.8 451.016V455.72H827.616C826.208 455.72 825.141 456.051 824.416 456.712C823.712 457.373 823.36 458.525 823.36 460.168V469H818.88V451.272H823.36V454.024Z" fill="black"/>
<path d="M985.667 444L1012.33 444M994.833 454L1012.33 454M985.667 464L1012.33 464" stroke="black" stroke-width="2" stroke-linecap="round"/>
<rect x="72.5" y="434.5" width="468" height="321" rx="29.5" fill="#2F2F2F" stroke="black"/>
<rect x="72.5" y="80.5" width="468" height="321" rx="29.5" fill="#2F2F2F" stroke="black"/>
<rect x="64.5" y="64.5" width="468" height="321" rx="29.5" fill="#9FE96E" stroke="black"/>
<path d="M90.7794 115.224C89.222 115.224 87.814 114.957 86.5554 114.424C85.318 113.891 84.3367 113.123 83.6114 112.12C82.886 111.117 82.5127 109.933 82.4914 108.568H87.2914C87.3554 109.485 87.6754 110.211 88.2514 110.744C88.8487 111.277 89.6594 111.544 90.6834 111.544C91.7287 111.544 92.55 111.299 93.1474 110.808C93.7447 110.296 94.0434 109.635 94.0434 108.824C94.0434 108.163 93.8407 107.619 93.4354 107.192C93.03 106.765 92.518 106.435 91.8994 106.2C91.302 105.944 90.47 105.667 89.4034 105.368C87.9527 104.941 86.7687 104.525 85.8514 104.12C84.9554 103.693 84.1767 103.064 83.5154 102.232C82.8754 101.379 82.5554 100.248 82.5554 98.84C82.5554 97.5173 82.886 96.3653 83.5474 95.384C84.2087 94.4027 85.1367 93.656 86.3314 93.144C87.526 92.6107 88.8914 92.344 90.4274 92.344C92.7314 92.344 94.598 92.9093 96.0274 94.04C97.478 95.1493 98.278 96.7067 98.4274 98.712H93.4994C93.4567 97.944 93.126 97.3147 92.5074 96.824C91.91 96.312 91.11 96.056 90.1074 96.056C89.2327 96.056 88.5287 96.28 87.9954 96.728C87.4834 97.176 87.2274 97.8267 87.2274 98.68C87.2274 99.2773 87.4194 99.7787 87.8034 100.184C88.2087 100.568 88.6994 100.888 89.2754 101.144C89.8727 101.379 90.7047 101.656 91.7714 101.976C93.222 102.403 94.406 102.829 95.3234 103.256C96.2407 103.683 97.03 104.323 97.6914 105.176C98.3527 106.029 98.6834 107.149 98.6834 108.536C98.6834 109.731 98.374 110.84 97.7554 111.864C97.1367 112.888 96.23 113.709 95.0354 114.328C93.8407 114.925 92.422 115.224 90.7794 115.224ZM101.415 106.072C101.415 104.28 101.767 102.691 102.471 101.304C103.197 99.9173 104.167 98.8507 105.383 98.104C106.621 97.3573 107.997 96.984 109.511 96.984C110.834 96.984 111.986 97.2507 112.967 97.784C113.97 98.3173 114.77 98.9893 115.367 99.8V97.272H119.879V115H115.367V112.408C114.791 113.24 113.991 113.933 112.967 114.488C111.965 115.021 110.802 115.288 109.479 115.288C107.986 115.288 106.621 114.904 105.383 114.136C104.167 113.368 103.197 112.291 102.471 110.904C101.767 109.496 101.415 107.885 101.415 106.072ZM115.367 106.136C115.367 105.048 115.154 104.12 114.727 103.352C114.301 102.563 113.725 101.965 112.999 101.56C112.274 101.133 111.495 100.92 110.663 100.92C109.831 100.92 109.063 101.123 108.359 101.528C107.655 101.933 107.079 102.531 106.631 103.32C106.205 104.088 105.991 105.005 105.991 106.072C105.991 107.139 106.205 108.077 106.631 108.888C107.079 109.677 107.655 110.285 108.359 110.712C109.085 111.139 109.853 111.352 110.663 111.352C111.495 111.352 112.274 111.149 112.999 110.744C113.725 110.317 114.301 109.72 114.727 108.952C115.154 108.163 115.367 107.224 115.367 106.136ZM128.735 91.32V115H124.255V91.32H128.735ZM149.641 105.752C149.641 106.392 149.598 106.968 149.513 107.48H136.553C136.66 108.76 137.108 109.763 137.897 110.488C138.686 111.213 139.657 111.576 140.809 111.576C142.473 111.576 143.657 110.861 144.361 109.432H149.193C148.681 111.139 147.7 112.547 146.249 113.656C144.798 114.744 143.017 115.288 140.905 115.288C139.198 115.288 137.662 114.915 136.297 114.168C134.953 113.4 133.897 112.323 133.129 110.936C132.382 109.549 132.009 107.949 132.009 106.136C132.009 104.301 132.382 102.691 133.129 101.304C133.876 99.9173 134.921 98.8507 136.265 98.104C137.609 97.3573 139.156 96.984 140.905 96.984C142.59 96.984 144.094 97.3467 145.417 98.072C146.761 98.7973 147.796 99.832 148.521 101.176C149.268 102.499 149.641 104.024 149.641 105.752ZM145.001 104.472C144.98 103.32 144.564 102.403 143.753 101.72C142.942 101.016 141.95 100.664 140.777 100.664C139.668 100.664 138.729 101.005 137.961 101.688C137.214 102.349 136.756 103.277 136.585 104.472H145.001ZM159.695 115.288C158.244 115.288 156.943 115.032 155.791 114.52C154.639 113.987 153.722 113.272 153.039 112.376C152.378 111.48 152.015 110.488 151.951 109.4H156.463C156.548 110.083 156.879 110.648 157.455 111.096C158.052 111.544 158.788 111.768 159.663 111.768C160.516 111.768 161.178 111.597 161.647 111.256C162.138 110.915 162.383 110.477 162.383 109.944C162.383 109.368 162.084 108.941 161.487 108.664C160.911 108.365 159.983 108.045 158.703 107.704C157.38 107.384 156.292 107.053 155.439 106.712C154.607 106.371 153.882 105.848 153.263 105.144C152.666 104.44 152.367 103.491 152.367 102.296C152.367 101.315 152.644 100.419 153.199 99.608C153.775 98.7973 154.586 98.1573 155.631 97.688C156.698 97.2187 157.946 96.984 159.375 96.984C161.487 96.984 163.172 97.5173 164.431 98.584C165.69 99.6293 166.383 101.048 166.511 102.84H162.223C162.159 102.136 161.86 101.581 161.327 101.176C160.815 100.749 160.122 100.536 159.247 100.536C158.436 100.536 157.807 100.685 157.359 100.984C156.932 101.283 156.719 101.699 156.719 102.232C156.719 102.829 157.018 103.288 157.615 103.608C158.212 103.907 159.14 104.216 160.399 104.536C161.679 104.856 162.735 105.187 163.567 105.528C164.399 105.869 165.114 106.403 165.711 107.128C166.33 107.832 166.65 108.771 166.671 109.944C166.671 110.968 166.383 111.885 165.807 112.696C165.252 113.507 164.442 114.147 163.375 114.616C162.33 115.064 161.103 115.288 159.695 115.288Z" fill="black"/>
<path d="M483.667 90L510.333 90M492.833 100L510.333 100M483.667 110L510.333 110" stroke="black" stroke-width="2" stroke-linecap="round"/>
<rect x="64.5" y="418.5" width="468" height="321" rx="29.5" fill="#9FE96E" stroke="black"/>
<path d="M93.0765 465.196C91.7138 465.196 90.4818 464.963 89.3805 464.496C88.2978 464.029 87.4392 463.357 86.8045 462.48C86.1698 461.603 85.8432 460.567 85.8245 459.372H90.0245C90.0805 460.175 90.3605 460.809 90.8645 461.276C91.3872 461.743 92.0965 461.976 92.9925 461.976C93.9072 461.976 94.6258 461.761 95.1485 461.332C95.6712 460.884 95.9325 460.305 95.9325 459.596C95.9325 459.017 95.7552 458.541 95.4005 458.168C95.0458 457.795 94.5978 457.505 94.0565 457.3C93.5338 457.076 92.8058 456.833 91.8725 456.572C90.6032 456.199 89.5672 455.835 88.7645 455.48C87.9805 455.107 87.2992 454.556 86.7205 453.828C86.1605 453.081 85.8805 452.092 85.8805 450.86C85.8805 449.703 86.1698 448.695 86.7485 447.836C87.3272 446.977 88.1392 446.324 89.1845 445.876C90.2298 445.409 91.4245 445.176 92.7685 445.176C94.7845 445.176 96.4178 445.671 97.6685 446.66C98.9378 447.631 99.6378 448.993 99.7685 450.748H95.4565C95.4192 450.076 95.1298 449.525 94.5885 449.096C94.0658 448.648 93.3658 448.424 92.4885 448.424C91.7232 448.424 91.1072 448.62 90.6405 449.012C90.1925 449.404 89.9685 449.973 89.9685 450.72C89.9685 451.243 90.1365 451.681 90.4725 452.036C90.8272 452.372 91.2565 452.652 91.7605 452.876C92.2832 453.081 93.0112 453.324 93.9445 453.604C95.2138 453.977 96.2498 454.351 97.0525 454.724C97.8552 455.097 98.5458 455.657 99.1245 456.404C99.7032 457.151 99.9925 458.131 99.9925 459.344C99.9925 460.389 99.7218 461.36 99.1805 462.256C98.6392 463.152 97.8458 463.871 96.8005 464.412C95.7552 464.935 94.5138 465.196 93.0765 465.196ZM102.383 457.188C102.383 455.62 102.691 454.229 103.307 453.016C103.942 451.803 104.791 450.869 105.855 450.216C106.938 449.563 108.142 449.236 109.467 449.236C110.624 449.236 111.632 449.469 112.491 449.936C113.368 450.403 114.068 450.991 114.591 451.7V449.488H118.539V465H114.591V462.732C114.087 463.46 113.387 464.067 112.491 464.552C111.614 465.019 110.596 465.252 109.439 465.252C108.132 465.252 106.938 464.916 105.855 464.244C104.791 463.572 103.942 462.629 103.307 461.416C102.691 460.184 102.383 458.775 102.383 457.188ZM114.591 457.244C114.591 456.292 114.404 455.48 114.031 454.808C113.658 454.117 113.154 453.595 112.519 453.24C111.884 452.867 111.203 452.68 110.475 452.68C109.747 452.68 109.075 452.857 108.459 453.212C107.843 453.567 107.339 454.089 106.947 454.78C106.574 455.452 106.387 456.255 106.387 457.188C106.387 458.121 106.574 458.943 106.947 459.652C107.339 460.343 107.843 460.875 108.459 461.248C109.094 461.621 109.766 461.808 110.475 461.808C111.203 461.808 111.884 461.631 112.519 461.276C113.154 460.903 113.658 460.38 114.031 459.708C114.404 459.017 114.591 458.196 114.591 457.244ZM126.288 444.28V465H122.368V444.28H126.288ZM144.581 456.908C144.581 457.468 144.543 457.972 144.469 458.42H133.129C133.222 459.54 133.614 460.417 134.305 461.052C134.995 461.687 135.845 462.004 136.853 462.004C138.309 462.004 139.345 461.379 139.961 460.128H144.189C143.741 461.621 142.882 462.853 141.613 463.824C140.343 464.776 138.785 465.252 136.937 465.252C135.443 465.252 134.099 464.925 132.905 464.272C131.729 463.6 130.805 462.657 130.133 461.444C129.479 460.231 129.153 458.831 129.153 457.244C129.153 455.639 129.479 454.229 130.133 453.016C130.786 451.803 131.701 450.869 132.877 450.216C134.053 449.563 135.406 449.236 136.937 449.236C138.411 449.236 139.727 449.553 140.885 450.188C142.061 450.823 142.966 451.728 143.601 452.904C144.254 454.061 144.581 455.396 144.581 456.908ZM140.521 455.788C140.502 454.78 140.138 453.977 139.429 453.38C138.719 452.764 137.851 452.456 136.825 452.456C135.854 452.456 135.033 452.755 134.361 453.352C133.707 453.931 133.306 454.743 133.157 455.788H140.521ZM153.378 465.252C152.108 465.252 150.97 465.028 149.962 464.58C148.954 464.113 148.151 463.488 147.554 462.704C146.975 461.92 146.658 461.052 146.602 460.1H150.55C150.624 460.697 150.914 461.192 151.418 461.584C151.94 461.976 152.584 462.172 153.35 462.172C154.096 462.172 154.675 462.023 155.086 461.724C155.515 461.425 155.73 461.043 155.73 460.576C155.73 460.072 155.468 459.699 154.946 459.456C154.442 459.195 153.63 458.915 152.51 458.616C151.352 458.336 150.4 458.047 149.654 457.748C148.926 457.449 148.291 456.992 147.75 456.376C147.227 455.76 146.966 454.929 146.966 453.884C146.966 453.025 147.208 452.241 147.694 451.532C148.198 450.823 148.907 450.263 149.822 449.852C150.755 449.441 151.847 449.236 153.098 449.236C154.946 449.236 156.42 449.703 157.522 450.636C158.623 451.551 159.23 452.792 159.342 454.36H155.59C155.534 453.744 155.272 453.259 154.806 452.904C154.358 452.531 153.751 452.344 152.986 452.344C152.276 452.344 151.726 452.475 151.334 452.736C150.96 452.997 150.774 453.361 150.774 453.828C150.774 454.351 151.035 454.752 151.558 455.032C152.08 455.293 152.892 455.564 153.994 455.844C155.114 456.124 156.038 456.413 156.766 456.712C157.494 457.011 158.119 457.477 158.642 458.112C159.183 458.728 159.463 459.549 159.482 460.576C159.482 461.472 159.23 462.275 158.726 462.984C158.24 463.693 157.531 464.253 156.598 464.664C155.683 465.056 154.61 465.252 153.378 465.252ZM173.291 451.728C173.795 451.019 174.486 450.431 175.363 449.964C176.259 449.479 177.277 449.236 178.415 449.236C179.741 449.236 180.935 449.563 181.999 450.216C183.082 450.869 183.931 451.803 184.547 453.016C185.182 454.211 185.499 455.601 185.499 457.188C185.499 458.775 185.182 460.184 184.547 461.416C183.931 462.629 183.082 463.572 181.999 464.244C180.935 464.916 179.741 465.252 178.415 465.252C177.277 465.252 176.269 465.019 175.391 464.552C174.533 464.085 173.833 463.497 173.291 462.788V472.392H169.371V449.488H173.291V451.728ZM181.495 457.188C181.495 456.255 181.299 455.452 180.907 454.78C180.534 454.089 180.03 453.567 179.395 453.212C178.779 452.857 178.107 452.68 177.379 452.68C176.67 452.68 175.998 452.867 175.363 453.24C174.747 453.595 174.243 454.117 173.851 454.808C173.478 455.499 173.291 456.311 173.291 457.244C173.291 458.177 173.478 458.989 173.851 459.68C174.243 460.371 174.747 460.903 175.363 461.276C175.998 461.631 176.67 461.808 177.379 461.808C178.107 461.808 178.779 461.621 179.395 461.248C180.03 460.875 180.534 460.343 180.907 459.652C181.299 458.961 181.495 458.14 181.495 457.188ZM202.768 456.908C202.768 457.468 202.731 457.972 202.656 458.42H191.316C191.409 459.54 191.801 460.417 192.492 461.052C193.183 461.687 194.032 462.004 195.04 462.004C196.496 462.004 197.532 461.379 198.148 460.128H202.376C201.928 461.621 201.069 462.853 199.8 463.824C198.531 464.776 196.972 465.252 195.124 465.252C193.631 465.252 192.287 464.925 191.092 464.272C189.916 463.6 188.992 462.657 188.32 461.444C187.667 460.231 187.34 458.831 187.34 457.244C187.34 455.639 187.667 454.229 188.32 453.016C188.973 451.803 189.888 450.869 191.064 450.216C192.24 449.563 193.593 449.236 195.124 449.236C196.599 449.236 197.915 449.553 199.072 450.188C200.248 450.823 201.153 451.728 201.788 452.904C202.441 454.061 202.768 455.396 202.768 456.908ZM198.708 455.788C198.689 454.78 198.325 453.977 197.616 453.38C196.907 452.764 196.039 452.456 195.012 452.456C194.041 452.456 193.22 452.755 192.548 453.352C191.895 453.931 191.493 454.743 191.344 455.788H198.708ZM209.549 451.896C210.053 451.075 210.707 450.431 211.509 449.964C212.331 449.497 213.264 449.264 214.309 449.264V453.38H213.273C212.041 453.38 211.108 453.669 210.473 454.248C209.857 454.827 209.549 455.835 209.549 457.272V465H205.629V449.488H209.549V451.896ZM222.669 455.2C222.669 453.277 223.099 451.56 223.957 450.048C224.835 448.517 226.02 447.332 227.513 446.492C229.025 445.633 230.715 445.204 232.581 445.204C234.765 445.204 236.679 445.764 238.321 446.884C239.964 448.004 241.112 449.553 241.765 451.532H237.257C236.809 450.599 236.175 449.899 235.353 449.432C234.551 448.965 233.617 448.732 232.553 448.732C231.415 448.732 230.397 449.003 229.501 449.544C228.624 450.067 227.933 450.813 227.429 451.784C226.944 452.755 226.701 453.893 226.701 455.2C226.701 456.488 226.944 457.627 227.429 458.616C227.933 459.587 228.624 460.343 229.501 460.884C230.397 461.407 231.415 461.668 232.553 461.668C233.617 461.668 234.551 461.435 235.353 460.968C236.175 460.483 236.809 459.773 237.257 458.84H241.765C241.112 460.837 239.964 462.396 238.321 463.516C236.697 464.617 234.784 465.168 232.581 465.168C230.715 465.168 229.025 464.748 227.513 463.908C226.02 463.049 224.835 461.864 223.957 460.352C223.099 458.84 222.669 457.123 222.669 455.2ZM259.758 449.488V465H255.81V463.04C255.306 463.712 254.643 464.244 253.822 464.636C253.019 465.009 252.142 465.196 251.19 465.196C249.976 465.196 248.903 464.944 247.97 464.44C247.036 463.917 246.299 463.161 245.758 462.172C245.235 461.164 244.974 459.969 244.974 458.588V449.488H248.894V458.028C248.894 459.26 249.202 460.212 249.818 460.884C250.434 461.537 251.274 461.864 252.338 461.864C253.42 461.864 254.27 461.537 254.886 460.884C255.502 460.212 255.81 459.26 255.81 458.028V449.488H259.758ZM269.561 465.252C268.292 465.252 267.153 465.028 266.145 464.58C265.137 464.113 264.335 463.488 263.737 462.704C263.159 461.92 262.841 461.052 262.785 460.1H266.733C266.808 460.697 267.097 461.192 267.601 461.584C268.124 461.976 268.768 462.172 269.533 462.172C270.28 462.172 270.859 462.023 271.269 461.724C271.699 461.425 271.913 461.043 271.913 460.576C271.913 460.072 271.652 459.699 271.129 459.456C270.625 459.195 269.813 458.915 268.693 458.616C267.536 458.336 266.584 458.047 265.837 457.748C265.109 457.449 264.475 456.992 263.933 456.376C263.411 455.76 263.149 454.929 263.149 453.884C263.149 453.025 263.392 452.241 263.877 451.532C264.381 450.823 265.091 450.263 266.005 449.852C266.939 449.441 268.031 449.236 269.281 449.236C271.129 449.236 272.604 449.703 273.705 450.636C274.807 451.551 275.413 452.792 275.525 454.36H271.773C271.717 453.744 271.456 453.259 270.989 452.904C270.541 452.531 269.935 452.344 269.169 452.344C268.46 452.344 267.909 452.475 267.517 452.736C267.144 452.997 266.957 453.361 266.957 453.828C266.957 454.351 267.219 454.752 267.741 455.032C268.264 455.293 269.076 455.564 270.177 455.844C271.297 456.124 272.221 456.413 272.949 456.712C273.677 457.011 274.303 457.477 274.825 458.112C275.367 458.728 275.647 459.549 275.665 460.576C275.665 461.472 275.413 462.275 274.909 462.984C274.424 463.693 273.715 464.253 272.781 464.664C271.867 465.056 270.793 465.252 269.561 465.252ZM283.447 452.708V460.212C283.447 460.735 283.569 461.117 283.811 461.36C284.073 461.584 284.502 461.696 285.099 461.696H286.919V465H284.455C281.151 465 279.499 463.395 279.499 460.184V452.708H277.651V449.488H279.499V445.652H283.447V449.488H286.919V452.708H283.447ZM296.627 465.252C295.133 465.252 293.789 464.925 292.595 464.272C291.4 463.6 290.457 462.657 289.767 461.444C289.095 460.231 288.759 458.831 288.759 457.244C288.759 455.657 289.104 454.257 289.795 453.044C290.504 451.831 291.465 450.897 292.679 450.244C293.892 449.572 295.245 449.236 296.739 449.236C298.232 449.236 299.585 449.572 300.799 450.244C302.012 450.897 302.964 451.831 303.655 453.044C304.364 454.257 304.719 455.657 304.719 457.244C304.719 458.831 304.355 460.231 303.627 461.444C302.917 462.657 301.947 463.6 300.715 464.272C299.501 464.925 298.139 465.252 296.627 465.252ZM296.627 461.836C297.336 461.836 297.999 461.668 298.615 461.332C299.249 460.977 299.753 460.455 300.127 459.764C300.5 459.073 300.687 458.233 300.687 457.244C300.687 455.769 300.295 454.64 299.511 453.856C298.745 453.053 297.803 452.652 296.683 452.652C295.563 452.652 294.62 453.053 293.855 453.856C293.108 454.64 292.735 455.769 292.735 457.244C292.735 458.719 293.099 459.857 293.827 460.66C294.573 461.444 295.507 461.836 296.627 461.836ZM326.858 449.264C328.762 449.264 330.293 449.852 331.45 451.028C332.626 452.185 333.214 453.809 333.214 455.9V465H329.294V456.432C329.294 455.219 328.986 454.295 328.37 453.66C327.754 453.007 326.914 452.68 325.85 452.68C324.786 452.68 323.937 453.007 323.302 453.66C322.686 454.295 322.378 455.219 322.378 456.432V465H318.458V456.432C318.458 455.219 318.15 454.295 317.534 453.66C316.918 453.007 316.078 452.68 315.014 452.68C313.931 452.68 313.073 453.007 312.438 453.66C311.822 454.295 311.514 455.219 311.514 456.432V465H307.594V449.488H311.514V451.364C312.018 450.711 312.662 450.197 313.446 449.824C314.249 449.451 315.126 449.264 316.078 449.264C317.291 449.264 318.374 449.525 319.326 450.048C320.278 450.552 321.015 451.28 321.538 452.232C322.042 451.336 322.77 450.617 323.722 450.076C324.693 449.535 325.738 449.264 326.858 449.264ZM351.354 456.908C351.354 457.468 351.317 457.972 351.242 458.42H339.902C339.995 459.54 340.387 460.417 341.078 461.052C341.769 461.687 342.618 462.004 343.626 462.004C345.082 462.004 346.118 461.379 346.734 460.128H350.962C350.514 461.621 349.655 462.853 348.386 463.824C347.117 464.776 345.558 465.252 343.71 465.252C342.217 465.252 340.873 464.925 339.678 464.272C338.502 463.6 337.578 462.657 336.906 461.444C336.253 460.231 335.926 458.831 335.926 457.244C335.926 455.639 336.253 454.229 336.906 453.016C337.559 451.803 338.474 450.869 339.65 450.216C340.826 449.563 342.179 449.236 343.71 449.236C345.185 449.236 346.501 449.553 347.658 450.188C348.834 450.823 349.739 451.728 350.374 452.904C351.027 454.061 351.354 455.396 351.354 456.908ZM347.294 455.788C347.275 454.78 346.911 453.977 346.202 453.38C345.493 452.764 344.625 452.456 343.598 452.456C342.627 452.456 341.806 452.755 341.134 453.352C340.481 453.931 340.079 454.743 339.93 455.788H347.294ZM358.135 451.896C358.639 451.075 359.293 450.431 360.095 449.964C360.917 449.497 361.85 449.264 362.895 449.264V453.38H361.859C360.627 453.38 359.694 453.669 359.059 454.248C358.443 454.827 358.135 455.835 358.135 457.272V465H354.215V449.488H358.135V451.896Z" fill="black"/>
<path d="M483.667 444L510.333 444M492.833 454L510.333 454M483.667 464L510.333 464" stroke="black" stroke-width="2" stroke-linecap="round"/>
<path d="M483.667 444L510.333 444M492.833 454L510.333 454M483.667 464L510.333 464" stroke="black" stroke-width="2" stroke-linecap="round"/>
<path d="M911.696 801.972C912.344 801.012 913.232 800.232 914.36 799.632C915.512 799.032 916.82 798.732 918.284 798.732C919.988 798.732 921.524 799.152 922.892 799.992C924.284 800.832 925.376 802.032 926.168 803.592C926.984 805.128 927.392 806.916 927.392 808.956C927.392 810.996 926.984 812.808 926.168 814.392C925.376 815.952 924.284 817.164 922.892 818.028C921.524 818.892 919.988 819.324 918.284 819.324C916.796 819.324 915.488 819.036 914.36 818.46C913.256 817.86 912.368 817.092 911.696 816.156V819H906.656V792.36H911.696V801.972ZM922.244 808.956C922.244 807.756 921.992 806.724 921.488 805.86C921.008 804.972 920.36 804.3 919.544 803.844C918.752 803.388 917.888 803.16 916.952 803.16C916.04 803.16 915.176 803.4 914.36 803.88C913.568 804.336 912.92 805.008 912.416 805.896C911.936 806.784 911.696 807.828 911.696 809.028C911.696 810.228 911.936 811.272 912.416 812.16C912.92 813.048 913.568 813.732 914.36 814.212C915.176 814.668 916.04 814.896 916.952 814.896C917.888 814.896 918.752 814.656 919.544 814.176C920.36 813.696 921.008 813.012 921.488 812.124C921.992 811.236 922.244 810.18 922.244 808.956ZM950.134 799.056L937.786 828.432H932.422L936.742 818.496L928.75 799.056H934.402L939.55 812.988L944.77 799.056H950.134ZM970.105 819.252C968.353 819.252 966.769 818.952 965.353 818.352C963.961 817.752 962.857 816.888 962.041 815.76C961.225 814.632 960.805 813.3 960.781 811.764H966.181C966.253 812.796 966.613 813.612 967.261 814.212C967.933 814.812 968.845 815.112 969.997 815.112C971.173 815.112 972.097 814.836 972.769 814.284C973.441 813.708 973.777 812.964 973.777 812.052C973.777 811.308 973.549 810.696 973.093 810.216C972.637 809.736 972.061 809.364 971.365 809.1C970.693 808.812 969.757 808.5 968.557 808.164C966.925 807.684 965.593 807.216 964.561 806.76C963.553 806.28 962.677 805.572 961.933 804.636C961.213 803.676 960.853 802.404 960.853 800.82C960.853 799.332 961.225 798.036 961.969 796.932C962.713 795.828 963.757 794.988 965.101 794.412C966.445 793.812 967.981 793.512 969.709 793.512C972.301 793.512 974.401 794.148 976.009 795.42C977.641 796.668 978.541 798.42 978.709 800.676H973.165C973.117 799.812 972.745 799.104 972.049 798.552C971.377 797.976 970.477 797.688 969.349 797.688C968.365 797.688 967.573 797.94 966.973 798.444C966.397 798.948 966.109 799.68 966.109 800.64C966.109 801.312 966.325 801.876 966.757 802.332C967.213 802.764 967.765 803.124 968.413 803.412C969.085 803.676 970.021 803.988 971.221 804.348C972.853 804.828 974.185 805.308 975.217 805.788C976.249 806.268 977.137 806.988 977.881 807.948C978.625 808.908 978.997 810.168 978.997 811.728C978.997 813.072 978.649 814.32 977.953 815.472C977.257 816.624 976.237 817.548 974.893 818.244C973.549 818.916 971.953 819.252 970.105 819.252ZM994.599 798.768C996.111 798.768 997.455 799.104 998.631 799.776C999.807 800.424 1000.72 801.396 1001.37 802.692C1002.04 803.964 1002.37 805.5 1002.37 807.3V819H997.335V807.984C997.335 806.4 996.939 805.188 996.147 804.348C995.355 803.484 994.275 803.052 992.907 803.052C991.515 803.052 990.411 803.484 989.595 804.348C988.803 805.188 988.407 806.4 988.407 807.984V819H983.367V792.36H988.407V801.54C989.055 800.676 989.919 800.004 990.999 799.524C992.079 799.02 993.279 798.768 994.599 798.768ZM1005.87 808.956C1005.87 806.94 1006.27 805.152 1007.06 803.592C1007.88 802.032 1008.97 800.832 1010.34 799.992C1011.73 799.152 1013.28 798.732 1014.98 798.732C1016.47 798.732 1017.76 799.032 1018.87 799.632C1020 800.232 1020.9 800.988 1021.57 801.9V799.056H1026.64V819H1021.57V816.084C1020.92 817.02 1020.02 817.8 1018.87 818.424C1017.74 819.024 1016.43 819.324 1014.94 819.324C1013.26 819.324 1011.73 818.892 1010.34 818.028C1008.97 817.164 1007.88 815.952 1007.06 814.392C1006.27 812.808 1005.87 810.996 1005.87 808.956ZM1021.57 809.028C1021.57 807.804 1021.33 806.76 1020.85 805.896C1020.37 805.008 1019.72 804.336 1018.9 803.88C1018.09 803.4 1017.21 803.16 1016.28 803.16C1015.34 803.16 1014.48 803.388 1013.68 803.844C1012.89 804.3 1012.24 804.972 1011.74 805.86C1011.26 806.724 1011.02 807.756 1011.02 808.956C1011.02 810.156 1011.26 811.212 1011.74 812.124C1012.24 813.012 1012.89 813.696 1013.68 814.176C1014.5 814.656 1015.36 814.896 1016.28 814.896C1017.21 814.896 1018.09 814.668 1018.9 814.212C1019.72 813.732 1020.37 813.06 1020.85 812.196C1021.33 811.308 1021.57 810.252 1021.57 809.028ZM1050.65 799.056L1038.3 828.432H1032.93L1037.25 818.496L1029.26 799.056H1034.91L1040.06 812.988L1045.28 799.056H1050.65ZM1064.41 798.768C1066.79 798.768 1068.71 799.524 1070.17 801.036C1071.64 802.524 1072.37 804.612 1072.37 807.3V819H1067.33V807.984C1067.33 806.4 1066.93 805.188 1066.14 804.348C1065.35 803.484 1064.27 803.052 1062.9 803.052C1061.51 803.052 1060.41 803.484 1059.59 804.348C1058.8 805.188 1058.4 806.4 1058.4 807.984V819H1053.36V799.056H1058.4V801.54C1059.07 800.676 1059.93 800.004 1060.96 799.524C1062.01 799.02 1063.17 798.768 1064.41 798.768ZM1095.7 808.596C1095.7 809.316 1095.66 809.964 1095.56 810.54H1080.98C1081.1 811.98 1081.6 813.108 1082.49 813.924C1083.38 814.74 1084.47 815.148 1085.77 815.148C1087.64 815.148 1088.97 814.344 1089.76 812.736H1095.2C1094.62 814.656 1093.52 816.24 1091.89 817.488C1090.26 818.712 1088.25 819.324 1085.88 819.324C1083.96 819.324 1082.23 818.904 1080.69 818.064C1079.18 817.2 1077.99 815.988 1077.13 814.428C1076.29 812.868 1075.87 811.068 1075.87 809.028C1075.87 806.964 1076.29 805.152 1077.13 803.592C1077.97 802.032 1079.14 800.832 1080.66 799.992C1082.17 799.152 1083.91 798.732 1085.88 798.732C1087.77 798.732 1089.46 799.14 1090.95 799.956C1092.46 800.772 1093.63 801.936 1094.44 803.448C1095.28 804.936 1095.7 806.652 1095.7 808.596ZM1090.48 807.156C1090.46 805.86 1089.99 804.828 1089.08 804.06C1088.17 803.268 1087.05 802.872 1085.73 802.872C1084.48 802.872 1083.43 803.256 1082.56 804.024C1081.72 804.768 1081.21 805.812 1081.02 807.156H1090.48ZM1113 815.004H1121.28V819H1107.96V793.872H1113V815.004ZM1143.31 799.056V819H1138.24V816.48C1137.59 817.344 1136.74 818.028 1135.68 818.532C1134.65 819.012 1133.52 819.252 1132.3 819.252C1130.74 819.252 1129.36 818.928 1128.16 818.28C1126.96 817.608 1126.01 816.636 1125.31 815.364C1124.64 814.068 1124.3 812.532 1124.3 810.756V799.056H1129.34V810.036C1129.34 811.62 1129.74 812.844 1130.53 813.708C1131.32 814.548 1132.4 814.968 1133.77 814.968C1135.16 814.968 1136.26 814.548 1137.05 813.708C1137.84 812.844 1138.24 811.62 1138.24 810.036V799.056H1143.31ZM1155.92 819.324C1154.28 819.324 1152.82 819.036 1151.52 818.46C1150.23 817.86 1149.2 817.056 1148.43 816.048C1147.68 815.04 1147.28 813.924 1147.2 812.7H1152.28C1152.38 813.468 1152.75 814.104 1153.4 814.608C1154.07 815.112 1154.9 815.364 1155.88 815.364C1156.84 815.364 1157.58 815.172 1158.11 814.788C1158.66 814.404 1158.94 813.912 1158.94 813.312C1158.94 812.664 1158.6 812.184 1157.93 811.872C1157.28 811.536 1156.24 811.176 1154.8 810.792C1153.31 810.432 1152.09 810.06 1151.13 809.676C1150.19 809.292 1149.38 808.704 1148.68 807.912C1148.01 807.12 1147.67 806.052 1147.67 804.708C1147.67 803.604 1147.98 802.596 1148.61 801.684C1149.26 800.772 1150.17 800.052 1151.34 799.524C1152.54 798.996 1153.95 798.732 1155.56 798.732C1157.93 798.732 1159.83 799.332 1161.24 800.532C1162.66 801.708 1163.44 803.304 1163.58 805.32H1158.76C1158.69 804.528 1158.35 803.904 1157.75 803.448C1157.18 802.968 1156.4 802.728 1155.41 802.728C1154.5 802.728 1153.79 802.896 1153.29 803.232C1152.81 803.568 1152.57 804.036 1152.57 804.636C1152.57 805.308 1152.9 805.824 1153.58 806.184C1154.25 806.52 1155.29 806.868 1156.71 807.228C1158.15 807.588 1159.34 807.96 1160.27 808.344C1161.21 808.728 1162.01 809.328 1162.68 810.144C1163.38 810.936 1163.74 811.992 1163.76 813.312C1163.76 814.464 1163.44 815.496 1162.79 816.408C1162.17 817.32 1161.26 818.04 1160.06 818.568C1158.88 819.072 1157.5 819.324 1155.92 819.324ZM1175.53 819.324C1173.9 819.324 1172.44 819.036 1171.14 818.46C1169.85 817.86 1168.81 817.056 1168.05 816.048C1167.3 815.04 1166.89 813.924 1166.82 812.7H1171.9C1171.99 813.468 1172.37 814.104 1173.01 814.608C1173.69 815.112 1174.51 815.364 1175.5 815.364C1176.46 815.364 1177.2 815.172 1177.73 814.788C1178.28 814.404 1178.56 813.912 1178.56 813.312C1178.56 812.664 1178.22 812.184 1177.55 811.872C1176.9 811.536 1175.86 811.176 1174.42 810.792C1172.93 810.432 1171.71 810.06 1170.75 809.676C1169.81 809.292 1168.99 808.704 1168.3 807.912C1167.63 807.12 1167.29 806.052 1167.29 804.708C1167.29 803.604 1167.6 802.596 1168.23 801.684C1168.87 800.772 1169.79 800.052 1170.96 799.524C1172.16 798.996 1173.57 798.732 1175.17 798.732C1177.55 798.732 1179.45 799.332 1180.86 800.532C1182.28 801.708 1183.06 803.304 1183.2 805.32H1178.38C1178.31 804.528 1177.97 803.904 1177.37 803.448C1176.79 802.968 1176.01 802.728 1175.03 802.728C1174.12 802.728 1173.41 802.896 1172.91 803.232C1172.43 803.568 1172.19 804.036 1172.19 804.636C1172.19 805.308 1172.52 805.824 1173.19 806.184C1173.87 806.52 1174.91 806.868 1176.33 807.228C1177.77 807.588 1178.95 807.96 1179.89 808.344C1180.83 808.728 1181.63 809.328 1182.3 810.144C1183 810.936 1183.36 811.992 1183.38 813.312C1183.38 814.464 1183.06 815.496 1182.41 816.408C1181.79 817.32 1180.87 818.04 1179.67 818.568C1178.5 819.072 1177.12 819.324 1175.53 819.324ZM1190.08 796.68C1189.19 796.68 1188.44 796.404 1187.84 795.852C1187.27 795.276 1186.98 794.568 1186.98 793.728C1186.98 792.888 1187.27 792.192 1187.84 791.64C1188.44 791.064 1189.19 790.776 1190.08 790.776C1190.96 790.776 1191.7 791.064 1192.27 791.64C1192.87 792.192 1193.17 792.888 1193.17 793.728C1193.17 794.568 1192.87 795.276 1192.27 795.852C1191.7 796.404 1190.96 796.68 1190.08 796.68ZM1192.56 799.056V819H1187.52V799.056H1192.56ZM1216.08 808.596C1216.08 809.316 1216.03 809.964 1215.93 810.54H1201.35C1201.47 811.98 1201.98 813.108 1202.87 813.924C1203.75 814.74 1204.85 815.148 1206.14 815.148C1208.01 815.148 1209.35 814.344 1210.14 812.736H1215.57C1215 814.656 1213.89 816.24 1212.26 817.488C1210.63 818.712 1208.63 819.324 1206.25 819.324C1204.33 819.324 1202.6 818.904 1201.07 818.064C1199.55 817.2 1198.37 815.988 1197.5 814.428C1196.66 812.868 1196.24 811.068 1196.24 809.028C1196.24 806.964 1196.66 805.152 1197.5 803.592C1198.34 802.032 1199.52 800.832 1201.03 799.992C1202.54 799.152 1204.28 798.732 1206.25 798.732C1208.15 798.732 1209.84 799.14 1211.33 799.956C1212.84 800.772 1214 801.936 1214.82 803.448C1215.66 804.936 1216.08 806.652 1216.08 808.596ZM1210.86 807.156C1210.83 805.86 1210.37 804.828 1209.45 804.06C1208.54 803.268 1207.43 802.872 1206.11 802.872C1204.86 802.872 1203.8 803.256 1202.94 804.024C1202.1 804.768 1201.58 805.812 1201.39 807.156H1210.86ZM1224.8 802.152C1225.45 801.096 1226.29 800.268 1227.32 799.668C1228.37 799.068 1229.57 798.768 1230.92 798.768V804.06H1229.59C1228 804.06 1226.8 804.432 1225.99 805.176C1225.19 805.92 1224.8 807.216 1224.8 809.064V819H1219.76V799.056H1224.8V802.152Z" fill="black"/>
</g>
<defs>
<filter id="filter0_f_1_2" x="-338.519" y="-336.157" width="867.057" height="832.314" filterUnits="userSpaceOnUse" color-interpolation-filters="sRGB">
<feFlood flood-opacity="0" result="BackgroundImageFix"/>
<feBlend mode="normal" in="SourceGraphic" in2="BackgroundImageFix" result="shape"/>
<feGaussianBlur stdDeviation="150" result="effect1_foregroundBlur_1_2"/>
</filter>
<linearGradient id="paint0_linear_1_2" x1="95.009" y1="-36.1476" x2="95.009" y2="196.148" gradientUnits="userSpaceOnUse">
<stop stop-color="#9FE96E"/>
<stop offset="1" stop-color="#59833E"/>
</linearGradient>
<clipPath id="clip0_1_2">
<rect width="1600" height="900" fill="white"/>
</clipPath>
</defs>
</svg>
